<svg id="레이어_1" data-name="레이어 1" xmlns="http://www.w3.org/2000/svg" viewBox="0 0 699.06 308.76"><defs><style>.cls-1,.cls-3,.cls-4{fill:none;}.cls-1{stroke:#020100;}.cls-1,.cls-2,.cls-3,.cls-4{stroke-width:1.5px;}.cls-2{fill:#070200;}.cls-2,.cls-3,.cls-4{stroke:#000;}.cls-4{stroke-miterlimit:10;}</style></defs><title>main2</title><path class="cls-1" d="M943.77,567.67q-2.07,8-7.21,11.9a19.77,19.77,0,0,1-12.35,3.92q-11.62,0-16.94-7.28A28.9,28.9,0,0,1,902,558.7q0-11.34,6.25-17.74t16.06-6.41a19.71,19.71,0,0,1,11.82,3.52,18.49,18.49,0,0,1,6.87,10.3l-6.13,1.45a14.72,14.72,0,0,0-4.71-7.43,12.46,12.46,0,0,0-7.91-2.48q-7.76,0-11.76,5.08t-4,13.64q0,9.89,4.21,14.69a13.93,13.93,0,0,0,11,4.81,13.29,13.29,0,0,0,9-3c2.32-2,3.93-5,4.86-9Z" transform="translate(-901.21 -528.25)"/><path class="cls-1" d="M972.15,534.55a21.3,21.3,0,0,1,16.27,6.75q6.33,6.74,6.33,17.79t-6.36,17.7a21.39,21.39,0,0,1-16.24,6.7q-10.23,0-16.47-6.94a24.49,24.49,0,0,1-6.23-16.95q0-11.65,6.32-18.35T972.15,534.55Zm-.06,43.58a14.88,14.88,0,0,0,11.67-5q4.47-5,4.5-14,0-9.24-4.57-14.21a14.93,14.93,0,0,0-11.48-5,15.32,15.32,0,0,0-11.68,4.87q-4.59,4.88-4.59,15,0,8.24,4.49,13.32A14.82,14.82,0,0,0,972.09,578.13Z" transform="translate(-901.21 -528.25)"/><path class="cls-1" d="M1031,549.24a9.17,9.17,0,0,0-3.26-6.8c-1.91-1.52-4.66-2.27-8.23-2.27a15.32,15.32,0,0,0-7.88,1.8,5.79,5.79,0,0,0-3,5.27,5,5,0,0,0,2.34,4.56c1.56,1,4.55,2,9,3a75.69,75.69,0,0,1,9.59,2.65,16.12,16.12,0,0,1,6.36,4.21,10.86,10.86,0,0,1,2.64,7.67,12.66,12.66,0,0,1-4.85,10.14q-4.86,4-12.68,4-10,0-14.93-4.45a15.75,15.75,0,0,1-5.24-11.56l5.94-.52q.42,5.68,4.39,8.28a17,17,0,0,0,9.59,2.6,15.09,15.09,0,0,0,8.5-2.16,6.71,6.71,0,0,0,3.25-5.88,6,6,0,0,0-3.39-5.65q-3.39-1.77-11.38-3.5t-11.51-4.86a10.37,10.37,0,0,1-3.52-8.13,11.72,11.72,0,0,1,4.45-9.4q4.45-3.71,12.14-3.71,7.88,0,12.67,3.7t5.09,10.5Z" transform="translate(-901.21 -528.25)"/><path class="cls-1" d="M1502.77,567.67q-2.07,8-7.21,11.9a19.77,19.77,0,0,1-12.35,3.92q-11.62,0-16.94-7.28A28.9,28.9,0,0,1,1461,558.7q0-11.34,6.25-17.74t16.06-6.41a19.71,19.71,0,0,1,11.82,3.52,18.49,18.49,0,0,1,6.87,10.3l-6.13,1.45a14.72,14.72,0,0,0-4.71-7.43,12.46,12.46,0,0,0-7.91-2.48q-7.76,0-11.76,5.08t-4,13.64q0,9.89,4.21,14.69a13.93,13.93,0,0,0,11,4.81,13.29,13.29,0,0,0,9-3c2.32-2,3.93-5,4.86-9Z" transform="translate(-901.21 -528.25)"/><path class="cls-1" d="M1531.15,534.55a21.3,21.3,0,0,1,16.27,6.75q6.33,6.74,6.33,17.79t-6.36,17.7a21.39,21.39,0,0,1-16.24,6.7q-10.23,0-16.47-6.94a24.49,24.49,0,0,1-6.23-16.95q0-11.65,6.32-18.35T1531.15,534.55Zm-.06,43.58a14.88,14.88,0,0,0,11.67-5q4.47-5,4.5-14,0-9.24-4.57-14.21a14.93,14.93,0,0,0-11.48-5,15.32,15.32,0,0,0-11.68,4.87q-4.59,4.88-4.59,15,0,8.24,4.49,13.32A14.82,14.82,0,0,0,1531.09,578.13Z" transform="translate(-901.21 -528.25)"/><path class="cls-1" d="M1590,549.24a9.17,9.17,0,0,0-3.26-6.8c-1.91-1.52-4.66-2.27-8.23-2.27a15.32,15.32,0,0,0-7.88,1.8,5.79,5.79,0,0,0-3,5.27,5,5,0,0,0,2.34,4.56c1.56,1,4.55,2,9,3a75.69,75.69,0,0,1,9.59,2.65,16.12,16.12,0,0,1,6.36,4.21,10.86,10.86,0,0,1,2.64,7.67,12.66,12.66,0,0,1-4.85,10.14q-4.86,4-12.68,4-10,0-14.93-4.45a15.75,15.75,0,0,1-5.24-11.56l5.94-.52q.42,5.68,4.39,8.28a17,17,0,0,0,9.59,2.6,15.09,15.09,0,0,0,8.5-2.16,6.71,6.71,0,0,0,3.25-5.88,6,6,0,0,0-3.39-5.65q-3.39-1.77-11.38-3.5t-11.51-4.86a10.37,10.37,0,0,1-3.52-8.13,11.72,11.72,0,0,1,4.45-9.4q4.45-3.71,12.14-3.71,7.88,0,12.67,3.7t5.09,10.5Z" transform="translate(-901.21 -528.25)"/><path class="cls-1" d="M1087.05,567.67q-2.05,8-7.21,11.9a19.75,19.75,0,0,1-12.35,3.92q-11.62,0-16.93-7.28a28.84,28.84,0,0,1-5.32-17.51q0-11.34,6.25-17.74t16.06-6.41a19.71,19.71,0,0,1,11.82,3.52,18.55,18.55,0,0,1,6.88,10.3l-6.14,1.45a14.72,14.72,0,0,0-4.71-7.43,12.46,12.46,0,0,0-7.91-2.48q-7.76,0-11.75,5.08t-4,13.64q0,9.89,4.22,14.69a13.91,13.91,0,0,0,11,4.81,13.29,13.29,0,0,0,9-3q3.48-3,4.86-9Z" transform="translate(-901.21 -528.25)"/><path class="cls-1" d="M1132.09,562.73a52.27,52.27,0,0,1-.4,6.75,19,19,0,0,1-2.13,6.38,13.64,13.64,0,0,1-5.62,5.45q-3.89,2.19-10.38,2.18a22.92,22.92,0,0,1-10.2-1.93,13.2,13.2,0,0,1-5.68-5,17.48,17.48,0,0,1-2.31-6.39,49.35,49.35,0,0,1-.5-7.43V535.36h6.26v27.28a38,38,0,0,0,.61,7.34,10,10,0,0,0,3.23,5.47c1.75,1.6,4.44,2.39,8.07,2.39s6.45-.63,8.3-1.9a8.71,8.71,0,0,0,3.62-5.09,33,33,0,0,0,.84-8.21V535.36h6.29Z" transform="translate(-901.21 -528.25)"/><path class="cls-1" d="M1176,582.69h-37.42v-5.88l24.25-30.22a24,24,0,0,1,1.71-2.11q1.71-2,3.19-3.51h-26.44v-5.61h33.9V541l-26.57,32.71-2.84,3.39H1176Z" transform="translate(-901.21 -528.25)"/><path class="cls-2" d="M1365.77,646.67q-2.07,8-7.21,11.9a19.77,19.77,0,0,1-12.35,3.92q-11.62,0-16.94-7.28A28.9,28.9,0,0,1,1324,637.7q0-11.34,6.25-17.74t16.06-6.41a19.71,19.71,0,0,1,11.82,3.52,18.49,18.49,0,0,1,6.87,10.3l-6.13,1.45a14.72,14.72,0,0,0-4.71-7.43,12.46,12.46,0,0,0-7.91-2.48q-7.76,0-11.76,5.08t-4,13.64q0,9.89,4.21,14.69a13.93,13.93,0,0,0,11,4.81,13.29,13.29,0,0,0,9-3c2.32-2,3.93-5,4.86-9Z" transform="translate(-901.21 -528.25)"/><path class="cls-2" d="M1394.15,613.55a21.3,21.3,0,0,1,16.27,6.75q6.33,6.74,6.33,17.79t-6.36,17.7a21.39,21.39,0,0,1-16.24,6.7q-10.23,0-16.47-6.94a24.49,24.49,0,0,1-6.23-16.95q0-11.65,6.32-18.35T1394.15,613.55Zm-.06,43.58a14.88,14.88,0,0,0,11.67-5q4.47-5,4.5-14,0-9.24-4.57-14.21a14.93,14.93,0,0,0-11.48-5,15.32,15.32,0,0,0-11.68,4.87q-4.59,4.88-4.59,15,0,8.24,4.49,13.32A14.82,14.82,0,0,0,1394.09,657.13Z" transform="translate(-901.21 -528.25)"/><path class="cls-2" d="M1453,628.24a9.17,9.17,0,0,0-3.26-6.8c-1.91-1.52-4.66-2.27-8.23-2.27a15.32,15.32,0,0,0-7.88,1.8,5.79,5.79,0,0,0-3,5.27,5,5,0,0,0,2.34,4.56c1.56,1,4.55,2,9,3a75.69,75.69,0,0,1,9.59,2.65,16.12,16.12,0,0,1,6.36,4.21,10.86,10.86,0,0,1,2.64,7.67,12.66,12.66,0,0,1-4.85,10.14q-4.86,4-12.68,4-10,0-14.93-4.45a15.75,15.75,0,0,1-5.24-11.56l5.94-.52q.42,5.68,4.39,8.28a17,17,0,0,0,9.59,2.6,15.09,15.09,0,0,0,8.5-2.16,6.71,6.71,0,0,0,3.25-5.88,6,6,0,0,0-3.39-5.65q-3.39-1.77-11.38-3.5t-11.51-4.86a10.37,10.37,0,0,1-3.52-8.13,11.72,11.72,0,0,1,4.45-9.4q4.45-3.71,12.14-3.71,7.88,0,12.67,3.7t5.09,10.5Z" transform="translate(-901.21 -528.25)"/><path class="cls-2" d="M1509.05,646.67q-2.05,8-7.21,11.9a19.75,19.75,0,0,1-12.35,3.92q-11.62,0-16.93-7.28a28.84,28.84,0,0,1-5.32-17.51q0-11.34,6.25-17.74t16.06-6.41a19.71,19.71,0,0,1,11.82,3.52,18.55,18.55,0,0,1,6.88,10.3l-6.14,1.45a14.72,14.72,0,0,0-4.71-7.43,12.46,12.46,0,0,0-7.91-2.48q-7.76,0-11.75,5.08t-4,13.64q0,9.89,4.22,14.69a13.91,13.91,0,0,0,11,4.81,13.29,13.29,0,0,0,9-3q3.48-3,4.86-9Z" transform="translate(-901.21 -528.25)"/><path class="cls-2" d="M1554.09,641.73a52.27,52.27,0,0,1-.4,6.75,19,19,0,0,1-2.13,6.38,13.64,13.64,0,0,1-5.62,5.45q-3.89,2.19-10.38,2.18a22.92,22.92,0,0,1-10.2-1.93,13.2,13.2,0,0,1-5.68-5,17.48,17.48,0,0,1-2.31-6.39,49.35,49.35,0,0,1-.5-7.43V614.36h6.26v27.28a38,38,0,0,0,.61,7.34,10,10,0,0,0,3.23,5.47c1.75,1.6,4.44,2.39,8.07,2.39s6.45-.63,8.3-1.9a8.71,8.71,0,0,0,3.62-5.09,33,33,0,0,0,.84-8.21V614.36h6.29Z" transform="translate(-901.21 -528.25)"/><path class="cls-2" d="M1598,661.69h-37.42v-5.88l24.25-30.22a24,24,0,0,1,1.71-2.11q1.71-2,3.19-3.51h-26.44v-5.61h33.9V620l-26.57,32.71-2.84,3.39H1598Z" transform="translate(-901.21 -528.25)"/><path class="cls-3" d="M1209.77,727.67q-2.07,8-7.21,11.9a19.77,19.77,0,0,1-12.35,3.92q-11.62,0-16.94-7.28A28.9,28.9,0,0,1,1168,718.7q0-11.34,6.25-17.74t16.06-6.41a19.71,19.71,0,0,1,11.82,3.52,18.49,18.49,0,0,1,6.87,10.3l-6.13,1.45a14.72,14.72,0,0,0-4.71-7.43,12.46,12.46,0,0,0-7.91-2.48q-7.76,0-11.76,5.08t-4,13.64q0,9.89,4.21,14.69a13.93,13.93,0,0,0,11,4.81,13.29,13.29,0,0,0,9-3c2.32-2,3.93-5,4.86-9Z" transform="translate(-901.21 -528.25)"/><path class="cls-3" d="M1238.15,694.55a21.3,21.3,0,0,1,16.27,6.75q6.33,6.74,6.33,17.79t-6.36,17.7a21.39,21.39,0,0,1-16.24,6.7q-10.23,0-16.47-6.94a24.49,24.49,0,0,1-6.23-16.95q0-11.65,6.32-18.35T1238.15,694.55Zm-.06,43.58a14.88,14.88,0,0,0,11.67-5q4.47-5,4.5-14,0-9.24-4.57-14.21a14.93,14.93,0,0,0-11.48-5,15.32,15.32,0,0,0-11.68,4.87q-4.59,4.88-4.59,15,0,8.24,4.49,13.32A14.82,14.82,0,0,0,1238.09,738.13Z" transform="translate(-901.21 -528.25)"/><path class="cls-3" d="M1297,709.24a9.17,9.17,0,0,0-3.26-6.8c-1.91-1.52-4.66-2.27-8.23-2.27a15.32,15.32,0,0,0-7.88,1.8,5.79,5.79,0,0,0-3,5.27,5,5,0,0,0,2.34,4.56c1.56,1,4.55,2,9,3a75.69,75.69,0,0,1,9.59,2.65,16.12,16.12,0,0,1,6.36,4.21,10.86,10.86,0,0,1,2.64,7.67,12.66,12.66,0,0,1-4.85,10.14q-4.86,4-12.68,4-10,0-14.93-4.45a15.75,15.75,0,0,1-5.24-11.56l5.94-.52q.42,5.68,4.39,8.28a17,17,0,0,0,9.59,2.6,15.09,15.09,0,0,0,8.5-2.16,6.71,6.71,0,0,0,3.25-5.88,6,6,0,0,0-3.39-5.65q-3.39-1.77-11.38-3.5t-11.51-4.86a10.37,10.37,0,0,1-3.52-8.13,11.72,11.72,0,0,1,4.45-9.4q4.45-3.71,12.14-3.71,7.88,0,12.67,3.7t5.09,10.5Z" transform="translate(-901.21 -528.25)"/><path class="cls-3" d="M1353.05,727.67q-2.05,8-7.21,11.9a19.75,19.75,0,0,1-12.35,3.92q-11.62,0-16.93-7.28a28.84,28.84,0,0,1-5.32-17.51q0-11.34,6.25-17.74t16.06-6.41a19.71,19.71,0,0,1,11.82,3.52,18.55,18.55,0,0,1,6.88,10.3l-6.14,1.45a14.72,14.72,0,0,0-4.71-7.43,12.46,12.46,0,0,0-7.91-2.48q-7.76,0-11.75,5.08t-4,13.64q0,9.89,4.22,14.69a13.91,13.91,0,0,0,11,4.81,13.29,13.29,0,0,0,9-3q3.48-3,4.86-9Z" transform="translate(-901.21 -528.25)"/><path class="cls-3" d="M1398.09,722.73a52.27,52.27,0,0,1-.4,6.75,19,19,0,0,1-2.13,6.38,13.64,13.64,0,0,1-5.62,5.45q-3.89,2.19-10.38,2.18a22.92,22.92,0,0,1-10.2-1.93,13.2,13.2,0,0,1-5.68-5,17.48,17.48,0,0,1-2.31-6.39,49.35,49.35,0,0,1-.5-7.43V695.36h6.26v27.28a38,38,0,0,0,.61,7.34,10,10,0,0,0,3.23,5.47c1.75,1.6,4.44,2.39,8.07,2.39s6.45-.63,8.3-1.9a8.71,8.71,0,0,0,3.62-5.09,33,33,0,0,0,.84-8.21V695.36h6.29Z" transform="translate(-901.21 -528.25)"/><path class="cls-3" d="M1442,742.69h-37.42v-5.88l24.25-30.22a24,24,0,0,1,1.71-2.11q1.71-2,3.19-3.51h-26.44v-5.61h33.9V701l-26.57,32.71-2.84,3.39H1442Z" transform="translate(-901.21 -528.25)"/><path class="cls-4" d="M1106.77,815.67q-2.07,8-7.21,11.9a19.77,19.77,0,0,1-12.35,3.92q-11.62,0-16.94-7.28A28.9,28.9,0,0,1,1065,806.7q0-11.34,6.25-17.74t16.06-6.41a19.71,19.71,0,0,1,11.82,3.52,18.49,18.49,0,0,1,6.87,10.3l-6.13,1.45a14.72,14.72,0,0,0-4.71-7.43,12.46,12.46,0,0,0-7.91-2.48q-7.76,0-11.76,5.08t-4,13.64q0,9.89,4.21,14.69a13.93,13.93,0,0,0,11,4.81,13.29,13.29,0,0,0,9-3c2.32-2,3.93-5,4.86-9Z" transform="translate(-901.21 -528.25)"/><path class="cls-4" d="M1135.15,782.55a21.3,21.3,0,0,1,16.27,6.75q6.33,6.74,6.33,17.79t-6.36,17.7a21.39,21.39,0,0,1-16.24,6.7q-10.23,0-16.47-6.94a24.49,24.49,0,0,1-6.23-16.95q0-11.65,6.32-18.35T1135.15,782.55Zm-.06,43.58a14.88,14.88,0,0,0,11.67-5q4.47-5,4.5-14,0-9.24-4.57-14.21a14.93,14.93,0,0,0-11.48-5,15.32,15.32,0,0,0-11.68,4.87q-4.59,4.88-4.59,15,0,8.24,4.49,13.32A14.82,14.82,0,0,0,1135.09,826.13Z" transform="translate(-901.21 -528.25)"/><path class="cls-4" d="M1194,797.24a9.17,9.17,0,0,0-3.26-6.8c-1.91-1.52-4.66-2.27-8.23-2.27a15.32,15.32,0,0,0-7.88,1.8,5.79,5.79,0,0,0-3,5.27,5,5,0,0,0,2.34,4.56c1.56,1,4.55,2,9,3a75.69,75.69,0,0,1,9.59,2.65,16.12,16.12,0,0,1,6.36,4.21,10.86,10.86,0,0,1,2.64,7.67,12.66,12.66,0,0,1-4.85,10.14q-4.86,4-12.68,4-10,0-14.93-4.45a15.75,15.75,0,0,1-5.24-11.56l5.94-.52q.42,5.68,4.39,8.28a17,17,0,0,0,9.59,2.6,15.09,15.09,0,0,0,8.5-2.16,6.71,6.71,0,0,0,3.25-5.88,6,6,0,0,0-3.39-5.65q-3.39-1.77-11.38-3.5t-11.51-4.86a10.37,10.37,0,0,1-3.52-8.13,11.72,11.72,0,0,1,4.45-9.4q4.45-3.71,12.14-3.71,7.88,0,12.67,3.7t5.09,10.5Z" transform="translate(-901.21 -528.25)"/><path class="cls-4" d="M1250.05,815.67q-2.05,8-7.21,11.9a19.75,19.75,0,0,1-12.35,3.92q-11.62,0-16.93-7.28a28.84,28.84,0,0,1-5.32-17.51q0-11.34,6.25-17.74t16.06-6.41a19.71,19.71,0,0,1,11.82,3.52,18.55,18.55,0,0,1,6.88,10.3l-6.14,1.45a14.72,14.72,0,0,0-4.71-7.43,12.46,12.46,0,0,0-7.91-2.48q-7.76,0-11.75,5.08t-4,13.64q0,9.89,4.22,14.69a13.91,13.91,0,0,0,11,4.81,13.29,13.29,0,0,0,9-3q3.48-3,4.86-9Z" transform="translate(-901.21 -528.25)"/><path class="cls-4" d="M1295.09,810.73a52.27,52.27,0,0,1-.4,6.75,19,19,0,0,1-2.13,6.38,13.64,13.64,0,0,1-5.62,5.45q-3.89,2.19-10.38,2.18a22.92,22.92,0,0,1-10.2-1.93,13.2,13.2,0,0,1-5.68-5,17.48,17.48,0,0,1-2.31-6.39,49.35,49.35,0,0,1-.5-7.43V783.36h6.26v27.28a38,38,0,0,0,.61,7.34,10,10,0,0,0,3.23,5.47c1.75,1.6,4.44,2.39,8.07,2.39s6.45-.63,8.3-1.9a8.71,8.71,0,0,0,3.62-5.09,33,33,0,0,0,.84-8.21V783.36h6.29Z" transform="translate(-901.21 -528.25)"/><path class="cls-4" d="M1339,830.69h-37.42v-5.88l24.25-30.22a24,24,0,0,1,1.71-2.11q1.71-2,3.19-3.51h-26.44v-5.61h33.9V789l-26.57,32.71-2.84,3.39H1339Z" transform="translate(-901.21 -528.25)"/><path class="cls-2" d="M948.05,644.67q-2.06,8-7.21,11.9a19.75,19.75,0,0,1-12.35,3.92q-11.62,0-16.93-7.28a28.84,28.84,0,0,1-5.32-17.51q0-11.34,6.25-17.74t16.06-6.41a19.71,19.71,0,0,1,11.82,3.52,18.55,18.55,0,0,1,6.88,10.3l-6.14,1.45a14.72,14.72,0,0,0-4.71-7.43,12.46,12.46,0,0,0-7.91-2.48q-7.75,0-11.75,5.08t-4,13.64q0,9.89,4.22,14.69a13.91,13.91,0,0,0,11,4.81,13.29,13.29,0,0,0,9-3q3.48-3,4.86-9Z" transform="translate(-901.21 -528.25)"/><path class="cls-2" d="M993.09,639.73a52.27,52.27,0,0,1-.4,6.75,19,19,0,0,1-2.13,6.38,13.64,13.64,0,0,1-5.62,5.45q-3.88,2.19-10.38,2.18a22.92,22.92,0,0,1-10.2-1.93,13.2,13.2,0,0,1-5.68-5,17.48,17.48,0,0,1-2.31-6.39,49.35,49.35,0,0,1-.5-7.43V612.36h6.26v27.28a38,38,0,0,0,.61,7.34,10,10,0,0,0,3.23,5.47c1.75,1.6,4.44,2.39,8.07,2.39s6.45-.63,8.3-1.9a8.71,8.71,0,0,0,3.62-5.09,33,33,0,0,0,.84-8.21V612.36h6.29Z" transform="translate(-901.21 -528.25)"/><path class="cls-2" d="M1037,659.69H999.58v-5.88l24.25-30.22a24,24,0,0,1,1.71-2.11q1.71-2,3.19-3.51h-26.44v-5.61h33.9V618l-26.57,32.71-2.84,3.39H1037Z" transform="translate(-901.21 -528.25)"/><path class="cls-1" d="M1205.77,579.33v-4.27h20.6v-15.4h5.06v15.4h26.93v4.27Zm46-44.2v6.2c0,7.8-.67,19.13-2.34,26.54l-4.93-.54a103.17,103.17,0,0,0,1.66-13.73l-35.06,1.8-.8-4.47,36.13-1.33c.07-2.07.14-3.94.14-5.67v-4.6H1211.9v-4.2Z" transform="translate(-901.21 -528.25)"/><path class="cls-1" d="M1263.46,579.27V575h52.6v4.27Zm47.87-16c-9.8-2.94-19.27-11.21-21.67-17.14-2.06,5.93-11.33,14.2-21.46,17.07l-2.67-4.33c9.47-1.87,21.6-10.87,21.6-20.4v-4.6h5.27v4.6c0,9.53,12.8,18.53,21.73,20.53Z" transform="translate(-901.21 -528.25)"/><path class="cls-1" d="M1324.29,576.4l-3.26-3.87c9.6-4.13,16.93-10.66,21.06-19.33l-19.73,1.73-1.07-4.6,22.4-1.33a39.08,39.08,0,0,0,1.67-9.8h-21.53V535h26.86C1350.49,556.07,1340.23,568.66,1324.29,576.4Zm26.2-20.13v-4.34h13.2V529h5.07v58.26h-5.07v-31Z" transform="translate(-901.21 -528.25)"/><path class="cls-1" d="M1378.86,579.27V575h52.66v4.27Zm47.86-14c-9.33-2.6-18.8-9.94-21.6-16.34-2.26,6.6-12,13.74-21.66,16.27l-2.47-4.4c8.93-1.47,21.53-10.07,21.53-19.4V540h-19.2v-4.27h43.6V540h-19.06v1.4c0,9.27,12.86,17.87,21.59,19.6Z" transform="translate(-901.21 -528.25)"/><path class="cls-2" d="M1071.77,657.33v-4.27h20.6v-15.4h5.06v15.4h26.93v4.27Zm46-44.2v6.2c0,7.8-.67,19.13-2.34,26.54l-4.93-.54a103.17,103.17,0,0,0,1.66-13.73l-35.06,1.8-.8-4.47,36.13-1.33c.07-2.07.14-3.94.14-5.67v-4.6H1077.9v-4.2Z" transform="translate(-901.21 -528.25)"/><path class="cls-2" d="M1129.46,657.27V653h52.6v4.27Zm47.87-16c-9.8-2.94-19.27-11.21-21.67-17.14-2.06,5.93-11.33,14.2-21.46,17.07l-2.67-4.33c9.47-1.87,21.6-10.87,21.6-20.4v-4.6h5.27v4.6c0,9.53,12.8,18.53,21.73,20.53Z" transform="translate(-901.21 -528.25)"/><path class="cls-2" d="M1190.29,654.4l-3.26-3.87c9.6-4.13,16.93-10.66,21.06-19.33l-19.73,1.73-1.07-4.6,22.4-1.33a39.08,39.08,0,0,0,1.67-9.8h-21.53V613h26.86C1216.49,634.07,1206.23,646.66,1190.29,654.4Zm26.2-20.13v-4.34h13.2V607h5.07v58.26h-5.07v-31Z" transform="translate(-901.21 -528.25)"/><path class="cls-2" d="M1244.86,657.27V653h52.66v4.27Zm47.86-14c-9.33-2.6-18.8-9.94-21.6-16.34-2.26,6.6-12,13.74-21.66,16.27l-2.47-4.4c8.93-1.47,21.53-10.07,21.53-19.4V618h-19.2v-4.27h43.6V618h-19.06v1.4c0,9.27,12.86,17.87,21.59,19.6Z" transform="translate(-901.21 -528.25)"/><path class="cls-3" d="M1373.77,826.33v-4.27h20.6v-15.4h5.06v15.4h26.93v4.27Zm46-44.2v6.2c0,7.8-.67,19.13-2.34,26.54l-4.93-.54a103.17,103.17,0,0,0,1.66-13.73l-35.06,1.8-.8-4.47,36.13-1.33c.07-2.07.14-3.94.14-5.67v-4.6H1379.9v-4.2Z" transform="translate(-901.21 -528.25)"/><path class="cls-3" d="M1431.46,826.27V822h52.6v4.27Zm47.87-16c-9.8-2.94-19.27-11.21-21.67-17.14-2.06,5.93-11.33,14.2-21.46,17.07l-2.67-4.33c9.47-1.87,21.6-10.87,21.6-20.4v-4.6h5.27v4.6c0,9.53,12.8,18.53,21.73,20.53Z" transform="translate(-901.21 -528.25)"/><path class="cls-3" d="M1492.29,823.4l-3.26-3.87c9.6-4.13,16.93-10.66,21.06-19.33l-19.73,1.73-1.07-4.6,22.4-1.33a39.08,39.08,0,0,0,1.67-9.8h-21.53V782h26.86C1518.49,803.07,1508.23,815.66,1492.29,823.4Zm26.2-20.13v-4.34h13.2V776h5.07v58.26h-5.07v-31Z" transform="translate(-901.21 -528.25)"/><path class="cls-3" d="M1546.86,826.27V822h52.66v4.27Zm47.86-14c-9.33-2.6-18.8-9.94-21.6-16.34-2.26,6.6-12,13.74-21.66,16.27l-2.47-4.4c8.93-1.47,21.53-10.07,21.53-19.4V787h-19.2v-4.27h43.6V787h-19.06v1.4c0,9.27,12.86,17.87,21.59,19.6Z" transform="translate(-901.21 -528.25)"/><path class="cls-3" d="M906.77,740.33v-4.27h20.6v-15.4h5.06v15.4h26.93v4.27Zm46-44.2v6.2c0,7.8-.67,19.13-2.34,26.54l-4.93-.54a103.17,103.17,0,0,0,1.66-13.73l-35.06,1.8-.8-4.47,36.13-1.33c.07-2.07.14-3.94.14-5.67v-4.6H912.9v-4.2Z" transform="translate(-901.21 -528.25)"/><path class="cls-3" d="M964.46,740.27V736h52.6v4.27Zm47.87-16c-9.8-2.94-19.27-11.21-21.67-17.14-2.06,5.93-11.33,14.2-21.46,17.07l-2.67-4.33c9.47-1.87,21.6-10.87,21.6-20.4v-4.6h5.27v4.6c0,9.53,12.8,18.53,21.73,20.53Z" transform="translate(-901.21 -528.25)"/><path class="cls-3" d="M1025.29,737.4l-3.26-3.87c9.6-4.13,16.93-10.66,21.06-19.33l-19.73,1.73-1.07-4.6,22.4-1.33a39.08,39.08,0,0,0,1.67-9.8h-21.53V696h26.86C1051.49,717.07,1041.23,729.66,1025.29,737.4Zm26.2-20.13v-4.34h13.2V690h5.07v58.26h-5.07v-31Z" transform="translate(-901.21 -528.25)"/><path class="cls-3" d="M1079.86,740.27V736h52.66v4.27Zm47.86-14c-9.33-2.6-18.8-9.94-21.6-16.34-2.26,6.6-12,13.74-21.66,16.27l-2.47-4.4c8.93-1.47,21.53-10.07,21.53-19.4V701h-19.2v-4.27h43.6V701h-19.06v1.4c0,9.27,12.86,17.87,21.59,19.6Z" transform="translate(-901.21 -528.25)"/><path class="cls-3" d="M1486.77,742.33v-4.27h20.6v-15.4h5.06v15.4h26.93v4.27Zm46-44.2v6.2c0,7.8-.67,19.13-2.34,26.54l-4.93-.54a103.17,103.17,0,0,0,1.66-13.73l-35.06,1.8-.8-4.47,36.13-1.33c.07-2.07.14-3.94.14-5.67v-4.6H1492.9v-4.2Z" transform="translate(-901.21 -528.25)"/><path class="cls-3" d="M1544.46,742.27V738h52.6v4.27Zm47.87-16c-9.8-2.94-19.27-11.21-21.67-17.14-2.06,5.93-11.33,14.2-21.46,17.07l-2.67-4.33c9.47-1.87,21.6-10.87,21.6-20.4v-4.6h5.27v4.6c0,9.53,12.8,18.53,21.73,20.53Z" transform="translate(-901.21 -528.25)"/><path class="cls-3" d="M908.29,825.4,905,821.53c9.6-4.13,16.93-10.66,21.06-19.33l-19.73,1.73-1.07-4.6,22.4-1.33a39.08,39.08,0,0,0,1.67-9.8H907.83V784h26.86C934.49,805.07,924.23,817.66,908.29,825.4Zm26.2-20.13v-4.34h13.2V778h5.07v58.26h-5.07v-31Z" transform="translate(-901.21 -528.25)"/><path class="cls-3" d="M962.86,828.27V824h52.66v4.27Zm47.86-14c-9.33-2.6-18.8-9.94-21.6-16.34-2.26,6.6-12,13.74-21.66,16.27L965,809.8c8.93-1.47,21.53-10.07,21.53-19.4V789h-19.2v-4.27h43.6V789H991.86v1.4c0,9.27,12.86,17.87,21.59,19.6Z" transform="translate(-901.21 -528.25)"/></svg>