<svg id="레이어_1" data-name="레이어 1" xmlns="http://www.w3.org/2000/svg" viewBox="0 0 300.63 78.33"><defs><style>.cls-1{fill:none;stroke:#000;}</style></defs><title>2</title><path class="cls-1" d="M.37,66.37V60.7H27.71V40.27h6.72V60.7H70.18v5.67ZM61.42,7.7v8.24c0,10.35-.88,25.39-3.1,35.21l-6.54-.71A140.21,140.21,0,0,0,54,32.21L7.45,34.61,6.39,28.68l48-1.77c.09-2.75.18-5.23.18-7.52V13.28h-46V7.7Z" transform="translate(0.13 0.93)"/><path class="cls-1" d="M76.94,66.28V60.62h69.82v5.66Zm63.53-21.23c-13-3.9-25.57-14.87-28.75-22.75C109,30.18,96.68,41.15,83.23,45l-3.54-5.75c12.56-2.48,28.67-14.43,28.67-27.08V6h7v6.1c0,12.65,17,24.6,28.85,27.25Z" transform="translate(0.13 0.93)"/><path class="cls-1" d="M157.68,62.48l-4.34-5.14c12.75-5.48,22.48-14.15,28-25.66L155.11,34l-1.41-6.11,29.73-1.77a51.39,51.39,0,0,0,2.21-13H157.06V7.53h35.66C192.45,35.49,178.83,52.21,157.68,62.48Zm34.77-26.72V30H210V-.43h6.73V76.9H210V35.76Z" transform="translate(0.13 0.93)"/><path class="cls-1" d="M230.1,66.28V60.62H300v5.66ZM293.63,47.7C281.24,44.25,268.68,34.52,265,26,262,34.78,249,44.25,236.2,47.61l-3.27-5.84c11.86-1.94,28.58-13.36,28.58-25.75V14.17H236V8.5h57.86v5.67h-25.3V16c0,12.3,17.08,23.72,28.67,26Z" transform="translate(0.13 0.93)"/></svg>