<svg id="레이어_1" data-name="레이어 1" xmlns="http://www.w3.org/2000/svg" viewBox="0 0 287.1 303.6"><defs><style>.cls-1{fill:none;stroke:#050000;stroke-miterlimit:10;}</style></defs><title>contact</title><path d="M157.22,87.94A1.08,1.08,0,0,1,156.6,89a5,5,0,0,1-2,.29l-7.31-.18c-2.2,0-3.94,0-5.21.05s-2.46.08-3.54.17l-.14,11.18a31.24,31.24,0,0,1-.3,4.4c-.36,2.32-.9,3.48-1.63,3.48-.27,0-.47-.4-.6-1.19a16.06,16.06,0,0,1-.2-2.6V89.4l-10.76.74a3.66,3.66,0,0,0-1,.33,3.61,3.61,0,0,1-1.33.33,9.57,9.57,0,0,1-3.35-1.12c-1.59-.75-2.38-1.33-2.38-1.74,0-.14.13-.22.39-.22,1,.12,2.23.22,3.7.31s2.8.13,4,.13h2.15q3.3,0,11.91-.28t9-.47a4.69,4.69,0,0,0,1.58-.35c.65-.23,1.32-.48,2-.75a15.91,15.91,0,0,1,4.05.42C156.7,87,157.22,87.41,157.22,87.94ZM145.47,75.49v.39a6.77,6.77,0,0,1-2.73,5.64,9.78,9.78,0,0,1-6.16,2,9.07,9.07,0,0,1-6.45-2.4,7.27,7.27,0,0,1-2.58-5.44v-.31a6.21,6.21,0,0,1,3.83-6,15.78,15.78,0,0,1,3.83-1,.67.67,0,0,0,.22-.49,1.77,1.77,0,0,0-.17-.61,1.74,1.74,0,0,1-.18-.53q0-.27.48-.27a2.94,2.94,0,0,1,1.54.53,1.51,1.51,0,0,1,.84,1.23,16.2,16.2,0,0,1,3.74,1.37C144.2,71,145.47,73,145.47,75.49Zm-7.66-6a5.31,5.31,0,0,0-.4.44,3.7,3.7,0,0,1-1,.4A9.51,9.51,0,0,0,132.35,72a4.64,4.64,0,0,0-1.94,3.83,4.91,4.91,0,0,0,2,4,6.93,6.93,0,0,0,4.41,1.46,6.76,6.76,0,0,0,4.48-1.5,5.08,5.08,0,0,0,1.81-4.14,5.74,5.74,0,0,0-2.64-4.84A13.89,13.89,0,0,0,137.81,69.5Z" transform="translate(-115.9 -66.46)"/><path d="M191.86,91.77a63.27,63.27,0,0,1-11.23,4.69q-8,2.7-11,2.71a2.42,2.42,0,0,1-1.8-1.08,4,4,0,0,1-.88-2.62V87.55c0-.59-.65-1.1-1.94-1.54s-1.93-.78-1.93-1,.3-.55.91-.68a7.82,7.82,0,0,1,1.58-.2,8.63,8.63,0,0,1,2,.27l2.34.53,4.55-.27a22.45,22.45,0,0,0,3-.22,10.75,10.75,0,0,0,1.55-.26q0-.61.09-1c.21-2,.31-3.27.31-3.91V75.88c-.59.06-1.25.11-2,.14s-1.48,0-2.25,0l-5.06.44a2.83,2.83,0,0,0-.68.24,2.54,2.54,0,0,1-1,.24,6.84,6.84,0,0,1-3.12-1.23c-.77-.47-1.15-.85-1.15-1.14s.16-.27.49-.27l2.13.27a16.18,16.18,0,0,0,2,.13c1.29,0,2.47,0,3.52-.09,3.67-.2,5.64-.31,5.9-.31a3,3,0,0,0,.79-.26,2.91,2.91,0,0,1,.8-.27,6.73,6.73,0,0,1,2.42.8c.64.32,1,.57,1,.74a.84.84,0,0,1-.38.62,1.11,1.11,0,0,0-.42.53l-1.58,7.26c.41,0,.72.06.92.09.62.15,1,.44,1.06.88s-.32.73-1,.88a8.43,8.43,0,0,1-1.49.09c-.74,0-1.49,0-2.27.06s-1.65.06-2.6.14l-4,.28c-.41,0-.93,0-1.54.09V94.9a1.63,1.63,0,0,0,.22,1,1.2,1.2,0,0,0,.92.26,41.37,41.37,0,0,0,10.57-1.8,68.24,68.24,0,0,0,10.21-3.65l-.22-19.63q0-.89-2.67-2.16c-1.77-.85-2.66-1.41-2.66-1.67s.16-.39.48-.47a4.9,4.9,0,0,1,1-.11,16.33,16.33,0,0,1,4.05.58c1.93.5,2.9,1.16,2.9,2L194.63,71v30.42c-.06,1.55-.13,2.71-.22,3.47-.32,2.32-.9,3.48-1.72,3.48-.32,0-.52-.48-.59-1.45s-.11-2-.11-3Z" transform="translate(-115.9 -66.46)"/><path d="M228.56,74.56a1.91,1.91,0,0,1-.39,1,2.75,2.75,0,0,0-.44.81l-.88,4.44-.93,5.37a8.38,8.38,0,0,1,1.32.1.69.69,0,0,1,.66.72.72.72,0,0,1-.43.72,3.27,3.27,0,0,1-1.27.2h-1.84l-10.1.31a2.81,2.81,0,0,1-.45,1.45,1.31,1.31,0,0,1-1.13.75c-.33,0-.59-.44-.77-1.32q-.09-.45-.18-1.32L211,76.54c0-.5-.57-.92-1.72-1.27s-1.71-.62-1.71-.8.26-.47.78-.61a8,8,0,0,1,2.12-.22,7.55,7.55,0,0,1,1.81.2l1.71.37H219q1.55,0,2.61-.09l1.64-.15a6.12,6.12,0,0,0,1.22-.29,4,4,0,0,1,.82-.22,8.54,8.54,0,0,1,1.92.35C228.08,74.05,228.54,74.3,228.56,74.56Zm-3.87.75L214,75.66l.31,11.23,9.86-.49c0-.38.06-.69.09-.92a44.37,44.37,0,0,0,.3-4.76Zm15.19,29.93H236l-6.49,0c-1.72,0-3.45,0-5.22.11a5.68,5.68,0,0,1-3.12-.66,3.26,3.26,0,0,1-1.19-2.86v-5q0-.7-2.13-1.14c-1.43-.29-2.14-.57-2.14-.84s.23-.53.68-.72a4.55,4.55,0,0,1,1.76-.29h1a10.77,10.77,0,0,1,2.72.29A1.2,1.2,0,0,1,223,95.34v6.82a2.4,2.4,0,0,0,.27,1.34,1.35,1.35,0,0,0,1.14.38l10-.14A11.78,11.78,0,0,0,237,103a6.14,6.14,0,0,1,2-.39,9.61,9.61,0,0,1,2.51.27c.64.19,1,.54,1,1a1,1,0,0,1-.69,1.08A5.23,5.23,0,0,1,239.88,105.24ZM245,84.6h-1.92c-1.33,0-2.62,0-3.87.13a5.44,5.44,0,0,0-.88.09v6.82a10.41,10.41,0,0,1-.51,3.41c-.34,1-.79,1.48-1.34,1.48-.21,0-.38-.32-.51-1a9.9,9.9,0,0,1-.2-2l-.17-23c0-.53-.62-1.07-1.85-1.63s-2.5-1.15-3.79-1.76c0-.24.19-.39.58-.46a5.23,5.23,0,0,1,1.09-.11,16.94,16.94,0,0,1,4.1.52c1.91.47,2.86,1.12,2.86,1.94L238.47,71V83.41l1.58-.13a7,7,0,0,0,1.81-.84,2.6,2.6,0,0,1,.92-.39h1.54a6.8,6.8,0,0,1,2,.25,1,1,0,0,1,.79,1,1,1,0,0,1-.56,1A3.84,3.84,0,0,1,245,84.6Z" transform="translate(-115.9 -66.46)"/><path d="M283.45,90.67c0,.38-1.31,1-3.92,1.76q-2.77.84-4.8,1.41-3.17.89-7,1.63-2.85.57-5.81,1l-2.51.35c-.73.27-1.45.52-2.15.75A9.9,9.9,0,0,1,254,96.39c-1.63-.79-2.44-1.38-2.44-1.76,0-.2.16-.31.48-.31.12,0,.62.05,1.5.14s1.7.13,2.46.13a62.49,62.49,0,0,0,7.4-.42c2.35-.28,5.13-.71,8.36-1.3q2.82-.53,7.53-1.54a35.85,35.85,0,0,1,4-.75Zm-8.94-9.86v.27a6.83,6.83,0,0,1-2.44,5.21,9.1,9.1,0,0,1-6.36,2.22,11.12,11.12,0,0,1-6.38-1.84A6.57,6.57,0,0,1,256.16,81a7,7,0,0,1,4-6.47,18.16,18.16,0,0,1,4-1.36.71.71,0,0,0,.22-.53,1.62,1.62,0,0,0-.13-.57,1.79,1.79,0,0,1-.13-.44l.26-.18a2.52,2.52,0,0,1,1.46.53,1.46,1.46,0,0,1,.74,1.19,19.57,19.57,0,0,1,4,1.41Q274.51,76.8,274.51,80.81Zm-8.18-6.42c-.06.23-1.28.8-3.65,1.71a5,5,0,0,0-3.57,5.06,4.44,4.44,0,0,0,2.2,3.79,7.48,7.48,0,0,0,4.31,1.32,6.69,6.69,0,0,0,5-1.89,4.78,4.78,0,0,0,1.5-3.39,6.2,6.2,0,0,0-2.91-5.2A14.86,14.86,0,0,0,266.33,74.39Zm18.48-4-.17,27.9a45.91,45.91,0,0,1-.46,7.42c-.31,1.71-.76,2.57-1.35,2.57s-.75-.71-.85-2.13-.16-2.62-.16-3.59V70.29c0-.35-.81-.88-2.42-1.6S277,67.54,277,67.39s.23-.46.68-.6a4.34,4.34,0,0,1,1.17-.19,12.37,12.37,0,0,1,3.56.57c1.7.53,2.56,1.19,2.56,2Z" transform="translate(-115.9 -66.46)"/><path d="M333.32,77.24c0,.18-.18.43-.53.75l-.57.53c-.42,1.2-.8,2.2-1.15,3a42,42,0,0,1-4,7.19,47.29,47.29,0,0,1-6.78,7.94c-2.67,2.6-4.37,3.91-5.1,3.91l-.22-.23q1.8-1.84,4.22-4.66A51.77,51.77,0,0,0,324.16,89a41.53,41.53,0,0,0,3-5.92,39.12,39.12,0,0,0,1.94-5.56c-.36,0-.78.1-1.26.13s-1.09,0-1.82,0q-1.55,0-2.4.09c-.58.06-1.1.13-1.57.22a3.22,3.22,0,0,0-.63.22,2.51,2.51,0,0,1-.91.22,7.6,7.6,0,0,1-2.35-.77q-1.74-.76-1.74-1.17t.57-.39c.68,0,1.32,0,1.94.09,2.17.2,3.36.3,3.56.3h2.82l3.12-.22a2.92,2.92,0,0,0,.71-.35,2.22,2.22,0,0,1,.88-.35,5.25,5.25,0,0,1,2.33.75Q333.32,76.85,333.32,77.24Zm15.84-7.87L348.94,71v30.8a13.89,13.89,0,0,1-.64,4.86q-.63,1.62-1.38,1.62c-.41,0-.65-.66-.71-2s-.08-2.71-.08-4.11V88.69l-5.68.26v9.78a14.31,14.31,0,0,1-.75,5.37c-.35.79-.75,1.18-1.19,1.18-.26,0-.45-.5-.55-1.49s-.15-2.09-.15-3.26v-28c0-.32-.46-.72-1.36-1.19s-1.83-1-2.78-1.49c0-.44.46-.66,1.39-.66a12.07,12.07,0,0,1,3.41.61c1.32.42,2,.78,2.11,1.11v1.62l-.13,14.66h5.68V70.51c0-.35-.48-.8-1.42-1.34l-2.9-1.65c0-.47.62-.7,1.85-.7a15.93,15.93,0,0,1,4.12,1C348.7,68.28,349.16,68.78,349.16,69.37Z" transform="translate(-115.9 -66.46)"/><path d="M380.72,89.4l-.31.08c-.5,0-1.49-.91-3-2.73-1.62-2-3.23-4-4.84-6-.3.38-.56.7-.8,1a36.64,36.64,0,0,1-4.92,4.57q-2.39,1.81-4.6,3.28a8.12,8.12,0,0,1-2.84,1.48l-.22-.13c0-.21.6-.82,1.8-1.85q3.21-2.73,5-4.36a34.62,34.62,0,0,0,5.2-6.47,15.59,15.59,0,0,0,2-3.65l.05-.18q0-.57-1.26-1.5c-.83-.61-1.68-1.24-2.53-1.89,0-.14.16-.25.49-.33a3.84,3.84,0,0,1,.75-.11,10.36,10.36,0,0,1,3.76,1.15c1.69.76,2.53,1.45,2.53,2.06a1.79,1.79,0,0,1-.18.75,2.72,2.72,0,0,0-.3.53l-3,4.67L374.6,81a9.2,9.2,0,0,0,1.59,1.17c.73.45,1.49.9,2.29,1.34a12.92,12.92,0,0,1,1.84,2.51,5.19,5.19,0,0,1,.84,2.46A1,1,0,0,1,380.72,89.4Zm12.19,10.21v.26a6.66,6.66,0,0,1-3,5.46,10.11,10.11,0,0,1-6.29,2.11,10.33,10.33,0,0,1-6.17-1.89,6.62,6.62,0,0,1-3-5.59v-.27a6,6,0,0,1,2.42-5.06q2.69-1.32,5.37-2.68a1.06,1.06,0,0,0-.2-.55,2,2,0,0,1-.2-.38c0-.08.11-.14.34-.17l.54-.09a2,2,0,0,1,1.63.84,3.75,3.75,0,0,1,.49.83,15.05,15.05,0,0,1,4,1A6.37,6.37,0,0,1,392.91,99.61Zm-2.46.13V99.3a5.21,5.21,0,0,0-2.86-4.62,12.89,12.89,0,0,0-2.91-1.15,2.17,2.17,0,0,1-.66.57,3.93,3.93,0,0,1-1.32.49,7.64,7.64,0,0,0-3.7,1.72,4.72,4.72,0,0,0-1.58,3.69,4.54,4.54,0,0,0,2.07,3.83,7.19,7.19,0,0,0,4.31,1.37,7.09,7.09,0,0,0,4.51-1.5A5.44,5.44,0,0,0,390.45,99.74Zm2.46-29.36V86.05a22.57,22.57,0,0,1-.27,3.74c-.33,2-.89,2.95-1.68,2.95-.27,0-.49-.48-.66-1.43a16.84,16.84,0,0,1-.25-3L390,80l-5,.44a1.75,1.75,0,0,0-.83.33,1.74,1.74,0,0,1-.84.33,6.1,6.1,0,0,1-2.2-.83c-1.05-.55-1.58-.94-1.58-1.16s.25-.26.75-.26h3.08c1.49,0,2.78,0,3.85-.11s2-.15,2.79-.24V70.56c0-.33-.62-.8-1.87-1.41s-2.53-1.26-3.85-1.94c0-.26.23-.45.7-.55a6,6,0,0,1,1.26-.15,13.49,13.49,0,0,1,4,.61c1.83.56,2.74,1.31,2.74,2.25Z" transform="translate(-115.9 -66.46)"/><path d="M145.6,135.17l-.13-10.3c0-.58-.55-1.17-1.63-1.76s-2.35-1.13-3.52-1.71c.08-.5.63-.75,1.62-.75a12,12,0,0,1,3.92.75c1.82.64,2.73,1.39,2.73,2.24,0,.26,0,.63-.06,1.1s-.07.75-.07.84l-.22,10,1.77-.13a3.54,3.54,0,0,0,1.48-.4c.54-.27,1.13-.54,1.75-.84h1.5a5.81,5.81,0,0,1,2.21.26.88.88,0,0,1,.49.82,1.1,1.1,0,0,1-.55,1,3,3,0,0,1-1.44.3l-7.21.22v3.35a13.11,13.11,0,0,1-.4,3.17c-.35,1.41-.79,2.11-1.32,2.11s-.63-.48-.75-1.43a27.47,27.47,0,0,1-.17-3.15v-4.75q-2.83,1.76-10.65,4.16t-10.82,2.4a2.22,2.22,0,0,1-1.59-.79,3.16,3.16,0,0,1-.89-1.55l-.22-11c0-.44-.45-.84-1.36-1.19s-1.83-.72-2.77-1.1a.63.63,0,0,1,.46-.62,3.66,3.66,0,0,1,1.21-.17l1.76.13a13.76,13.76,0,0,1,2.13.31c.64.14,1.26.28,1.87.39l5.9-.13a4.51,4.51,0,0,0,1.7-.42l2-.86h1.24a5.73,5.73,0,0,1,2,.29,1.1,1.1,0,0,1,.73,1.14c-.09.46-.46.75-1.1.87a13.57,13.57,0,0,1-2.25.17l-10.74.31v10a1.82,1.82,0,0,0,.29,1.17q.28.33,1.35.33a27.9,27.9,0,0,0,3.49-.26q2-.27,5.35-1.06a62.3,62.3,0,0,0,6.81-2Zm2.29,17.39a7.44,7.44,0,0,1-2.56,5.89,8,8,0,0,1-5.5,2.07,10.29,10.29,0,0,1-5.81-1.93,7.07,7.07,0,0,1-3.52-6,6.38,6.38,0,0,1,4.05-6.08,17.9,17.9,0,0,1,4.09-1.1.69.69,0,0,0,.22-.53,3.24,3.24,0,0,1-.22-.92c.12-.18.22-.26.31-.26a2.2,2.2,0,0,1,1.43.63,1.81,1.81,0,0,1,.73,1.35,17.38,17.38,0,0,1,3.39,1.41A6.22,6.22,0,0,1,147.89,152.56Zm-2.29-.36a4.87,4.87,0,0,0-2.38-4,17.52,17.52,0,0,0-2.37-1.23.55.55,0,0,1-.14.22,4.67,4.67,0,0,1-2.62.73,5.19,5.19,0,0,0-3.54,1.87,4.54,4.54,0,0,0-1.23,3,4.86,4.86,0,0,0,2.68,4.27,7.61,7.61,0,0,0,3.83,1.23,5.62,5.62,0,0,0,3.7-1.37A5.78,5.78,0,0,0,145.6,152.2Z" transform="translate(-115.9 -66.46)"/><path d="M186,143.8c0,.53-.24.79-.71.79s-1.48-.88-3.12-2.64q-.7-.75-4.36-5a16.87,16.87,0,0,0-2.55-2.69,23.87,23.87,0,0,1-1.63,1.89,35.58,35.58,0,0,1-3.21,3.17,54.66,54.66,0,0,1-5.72,4.29c-2.32,1.54-3.76,2.32-4.32,2.32l-.22-.09q0-.31,4.45-4a50.5,50.5,0,0,0,4.79-4.41,45.28,45.28,0,0,0,4.72-6.11,21.94,21.94,0,0,0,1.27-2.38c0-.29-.59-.84-1.76-1.63s-1.76-1.31-1.76-1.54.54-.31,1.28-.31a10,10,0,0,1,3.41,1c1.54.66,2.4,1.23,2.57,1.7a2.81,2.81,0,0,1-.17,1,2.2,2.2,0,0,1-.35.6l-2.6,3.43,3.12,3a8.16,8.16,0,0,0,1.4.93c.63.35,1.27.69,1.92,1a14.52,14.52,0,0,1,2.26,2.68A6,6,0,0,1,186,143.8Zm12.28,15.27a1,1,0,0,1-.88,1,11.32,11.32,0,0,1-2.86.26H178.87a6.78,6.78,0,0,1-3.08-.53,2.87,2.87,0,0,1-1.36-2.77v-5.46c0-.24-.81-.55-2.42-1a8.2,8.2,0,0,1-2.47-.77c0-.32.34-.61,1-.88a3.17,3.17,0,0,1,1.06-.22l1.58,0a11.73,11.73,0,0,1,3,.33c.82.22,1.23.64,1.23,1.25l-.13,1.15v6.38a1,1,0,0,0,.7,1,5.55,5.55,0,0,0,1.85.26h3.92c1.35,0,2.54,0,3.59-.08s1.84-.11,2.39-.18a4.58,4.58,0,0,0,2-.8,2.75,2.75,0,0,1,.79-.39h2a10.1,10.1,0,0,1,2.66.3C197.88,158.12,198.24,158.5,198.24,159.07Zm-3.39-36.22a5.89,5.89,0,0,1-.11.9c-.07.4-.11.62-.11.68l-.18,20.82a19.84,19.84,0,0,1-.46,4.84c-.31,1.18-.77,1.84-1.39,2q-.66,0-.81-2.07c-.1-1.38-.15-2.53-.15-3.47V124.21c0-.29-.52-.69-1.54-1.19-1.18-.5-2.34-1-3.48-1.54,0-.47.73-.7,2.2-.7l3.43.53C194,121.69,194.85,122.2,194.85,122.85Z" transform="translate(-115.9 -66.46)"/><path d="M228.56,128.7a1.91,1.91,0,0,1-.39,1,2.88,2.88,0,0,0-.44.8l-.88,4.45-.93,5.36a8.4,8.4,0,0,1,1.32.11.68.68,0,0,1,.66.72.72.72,0,0,1-.43.72,3.27,3.27,0,0,1-1.27.2h-1.84l-10.1.3a2.84,2.84,0,0,1-.45,1.46,1.31,1.31,0,0,1-1.13.75c-.33,0-.59-.44-.77-1.32q-.09-.45-.18-1.32L211,130.68c0-.5-.57-.92-1.72-1.28s-1.71-.61-1.71-.79.26-.47.78-.61a8,8,0,0,1,2.12-.22,8.1,8.1,0,0,1,1.81.19c.56.14,1.13.26,1.71.38H219q1.55,0,2.61-.09l1.64-.15a6.12,6.12,0,0,0,1.22-.29,3.4,3.4,0,0,1,.82-.22,8.54,8.54,0,0,1,1.92.35C228.08,128.19,228.54,128.44,228.56,128.7Zm-3.87.75L214,129.8l.31,11.22,9.86-.48c0-.38.06-.69.09-.92a44.37,44.37,0,0,0,.3-4.76Zm15.19,29.93H236l-6.49,0c-1.72,0-3.45,0-5.22.11a5.68,5.68,0,0,1-3.12-.66A3.26,3.26,0,0,1,220,156v-5q0-.71-2.13-1.14c-1.43-.29-2.14-.57-2.14-.84s.23-.53.68-.73a4.76,4.76,0,0,1,1.76-.28h1a11.31,11.31,0,0,1,2.72.28,1.22,1.22,0,0,1,1.06,1.22v6.82a2.42,2.42,0,0,0,.27,1.34,1.35,1.35,0,0,0,1.14.37l10-.13a11.78,11.78,0,0,0,2.64-.79,6.17,6.17,0,0,1,2-.4,9.55,9.55,0,0,1,2.51.28c.64.19,1,.53,1,1a1.06,1.06,0,0,1-.69,1.09A5.23,5.23,0,0,1,239.88,159.38ZM245,138.74h-1.92c-1.33,0-2.62,0-3.87.13a5.44,5.44,0,0,0-.88.09v6.82a10.41,10.41,0,0,1-.51,3.41c-.34,1-.79,1.47-1.34,1.47-.21,0-.38-.31-.51-.94a9.9,9.9,0,0,1-.2-2l-.17-23c0-.53-.62-1.07-1.85-1.63s-2.5-1.15-3.79-1.76c0-.24.19-.39.58-.47a6,6,0,0,1,1.09-.11,17,17,0,0,1,4.1.53c1.91.47,2.86,1.12,2.86,1.94l-.13,1.89v12.46l1.58-.13a7,7,0,0,0,1.81-.84,2.7,2.7,0,0,1,.92-.4h1.54a6.77,6.77,0,0,1,2,.26,1,1,0,0,1,.79,1,1,1,0,0,1-.56,1A3.84,3.84,0,0,1,245,138.74Z" transform="translate(-115.9 -66.46)"/><path d="M283.45,144.81c0,.38-1.31,1-3.92,1.76q-2.77.84-4.8,1.41-3.17.89-7,1.63-2.85.57-5.81,1l-2.51.35c-.73.27-1.45.52-2.15.75a9.9,9.9,0,0,1-3.24-1.19c-1.63-.79-2.44-1.38-2.44-1.76,0-.2.16-.31.48-.31.12,0,.62,0,1.5.14s1.7.13,2.46.13a62.49,62.49,0,0,0,7.4-.42c2.35-.28,5.13-.71,8.36-1.3q2.82-.52,7.53-1.54a35.85,35.85,0,0,1,4-.75ZM274.51,135v.26a6.84,6.84,0,0,1-2.44,5.22,9.1,9.1,0,0,1-6.36,2.22,11.06,11.06,0,0,1-6.38-1.85,6.54,6.54,0,0,1-3.17-5.63,7,7,0,0,1,4-6.47,18.16,18.16,0,0,1,4-1.36.73.73,0,0,0,.22-.53,1.62,1.62,0,0,0-.13-.57,1.92,1.92,0,0,1-.13-.44l.26-.18a2.52,2.52,0,0,1,1.46.53,1.46,1.46,0,0,1,.74,1.19,19.57,19.57,0,0,1,4,1.41Q274.51,130.94,274.51,135Zm-8.18-6.42c-.06.23-1.28.8-3.65,1.71a5,5,0,0,0-3.57,5.06,4.44,4.44,0,0,0,2.2,3.79,7.48,7.48,0,0,0,4.31,1.32,6.69,6.69,0,0,0,5-1.89,4.78,4.78,0,0,0,1.5-3.39,6.19,6.19,0,0,0-2.91-5.2A14.31,14.31,0,0,0,266.33,128.53Zm18.48-4-.17,27.91a45.69,45.69,0,0,1-.46,7.41q-.46,2.58-1.35,2.58c-.47,0-.75-.71-.85-2.13s-.16-2.62-.16-3.59V124.43c0-.35-.81-.88-2.42-1.6a8,8,0,0,1-2.42-1.3c0-.27.23-.46.68-.6a4.4,4.4,0,0,1,1.17-.2,12.4,12.4,0,0,1,3.56.58c1.7.52,2.56,1.19,2.56,2Z" transform="translate(-115.9 -66.46)"/><path d="M335.69,135.7a7.37,7.37,0,0,1-2.48,5.83,10.19,10.19,0,0,1-6.93,2.18,11,11,0,0,1-6.52-1.89,7.16,7.16,0,0,1-3.12-6.21,6.59,6.59,0,0,1,2.94-5.68c2.15-1,4.29-2,6.43-3a1.44,1.44,0,0,0-.2-.58,1.68,1.68,0,0,1-.2-.52.57.57,0,0,1,.49-.18,2.14,2.14,0,0,1,1.61.73,2.41,2.41,0,0,1,.68,1.69,18.94,18.94,0,0,1,3.65,1.72C334.48,131.37,335.69,133.35,335.69,135.7Zm-2.55,0a6.61,6.61,0,0,0-2.6-4.84,17.82,17.82,0,0,0-2.59-1.81l-.18.18a3,3,0,0,1-1.63.62A10.75,10.75,0,0,0,321.3,132a4.59,4.59,0,0,0-1.89,3.65,5.28,5.28,0,0,0,2.33,4.58,7.72,7.72,0,0,0,4.54,1.32,8.09,8.09,0,0,0,4.88-1.32,4.92,4.92,0,0,0,2-4.23Zm18.05,23.2a1.27,1.27,0,0,1-.86,1.29,8.87,8.87,0,0,1-2.88.33H344q-2.37,0-6.27.09l-3.94.09h-1.89a5.51,5.51,0,0,1-3-.66,3.09,3.09,0,0,1-1.19-2.77v-5.33c0-.32-.73-.7-2.2-1.14s-2.2-.74-2.2-.88a.8.8,0,0,1,.46-.64,2,2,0,0,1,1-.29l2.11,0a9.85,9.85,0,0,1,2.71.31q1.08.3,1.08,1.14l-.14,1.1v6.38a1.62,1.62,0,0,0,.25,1,.89.89,0,0,0,.72.28h5.68c.85,0,1.82,0,2.9-.1l3.09-.2a3.1,3.1,0,0,0,1.52-.58,10.73,10.73,0,0,1,.94-.57l2.64-.13a7.14,7.14,0,0,1,2.12.26A1,1,0,0,1,351.19,158.9Zm4.4-21.83a1.16,1.16,0,0,1-1,1.15,7.85,7.85,0,0,1-2.33.3h-5.87v8a15,15,0,0,1-.3,3c-.33,1.58-.84,2.48-1.55,2.68-.38,0-.6-.48-.66-1.45s-.08-1.85-.08-2.64V124.92q0-.75-2.49-2.07c-1.66-.88-2.49-1.34-2.49-1.37.09-.52.61-.79,1.57-.79a12.39,12.39,0,0,1,3,.49l2.09.59a1.25,1.25,0,0,1,1.05,1.3v1.14l-.14,12.9H348a3.16,3.16,0,0,0,1.42-.66,6.6,6.6,0,0,1,1.07-.66h2.44a6.06,6.06,0,0,1,2,.25A1,1,0,0,1,355.59,137.07Z" transform="translate(-115.9 -66.46)"/><path d="M393,124.43l-.13,15.45a24.67,24.67,0,0,1-.27,4.27c-.26,1.5-.8,2.29-1.62,2.38-.5,0-.79-.47-.86-1.39s-.11-1.8-.11-2.62v-2.64l-6.56.44a3.57,3.57,0,0,0-1.06.18,12.37,12.37,0,0,1-1.41.39,5.79,5.79,0,0,1-2.46-.92q-.93-.53-.93-.84c0-.17.12-.29.36-.35h.35c.29,0,.83,0,1.63.07l1.49.06,8.59-.39v-7l-5.81.39a3.67,3.67,0,0,0-1.37.29,3.65,3.65,0,0,1-.88.29,5.32,5.32,0,0,1-1.45-.49,6.13,6.13,0,0,1-1.37-.7l-2.33,3.56a39.72,39.72,0,0,1-3.08,3.79,66.14,66.14,0,0,1-8.23,7.52c-2.43,1.83-4.08,2.73-4.93,2.73-.26,0-.4-.1-.4-.3,1.18-.91,2.7-2.21,4.58-3.88a67.82,67.82,0,0,0,6.12-6.2,40.54,40.54,0,0,0,4.34-6,30,30,0,0,0,2.57-5.24l-9.07.61c-.7.27-1.4.52-2.11.75a8.69,8.69,0,0,1-2.51-.94c-1.32-.63-2-1.1-2-1.39s.31-.31.93-.31c.26,0,.86,0,1.8.11s1.66.11,2.16.11c1,0,2.25,0,3.85-.09l2.66-.08q1.32,0,2.22-.09c.61-.06,1.06-.11,1.37-.16a4.14,4.14,0,0,0,1.1-.35,2.84,2.84,0,0,1,.81-.28,5.87,5.87,0,0,1,1.76.44c.83.29,1.24.58,1.24.88a.8.8,0,0,1-.29.5c-.19.19-.4.39-.64.6l-1.41,2.73,2,.13h2.57c1.06,0,2.09,0,3.09-.11l2.7-.24V125c0-.41-.58-.92-1.73-1.54s-2.33-1.24-3.51-1.89c0-.47.62-.7,1.86-.7.53.09,1.47.31,2.83.66a17.91,17.91,0,0,1,2.59.79,1.41,1.41,0,0,1,.75.75A3.72,3.72,0,0,1,393,124.43Zm0,29.49a7.06,7.06,0,0,1-2.36,5.48,9.36,9.36,0,0,1-6.53,2.14,10.05,10.05,0,0,1-6.45-2.36q-2.93-2.35-2.93-5.13,0-4.12,4.23-6.29a19.1,19.1,0,0,1,4.22-1.32,1,1,0,0,0,.22-.27V146a2.81,2.81,0,0,1-.3-.88.69.69,0,0,1,.39-.17,3.3,3.3,0,0,1,1.63.39,1.37,1.37,0,0,1,.71,1.28,15.36,15.36,0,0,1,3.56,1.36A6.6,6.6,0,0,1,393,153.92Zm-2.29-.22a5.43,5.43,0,0,0-2.55-4.58,14.63,14.63,0,0,0-2.6-1.27.4.4,0,0,1-.22.17,8.59,8.59,0,0,1-2.9.95,6.12,6.12,0,0,0-3.39,1.78,4.45,4.45,0,0,0-1.28,3.13,5.12,5.12,0,0,0,1.7,3.76,6.29,6.29,0,0,0,4.6,1.65,7.53,7.53,0,0,0,4.62-1.32A5,5,0,0,0,390.71,153.7Z" transform="translate(-115.9 -66.46)"/><line class="cls-1" x1="1.1" y1="111.04" x2="287.1" y2="111.04"/><path d="M221.3,221.42a6.32,6.32,0,0,1-.44,1.2s0,0-.06,0c-.84.14-1.68.25-2.51.34s-1.69.13-2.56.13a8.35,8.35,0,0,1-2.95-.52,6.91,6.91,0,0,1-2.34-1.48,6.5,6.5,0,0,1-1.55-2.28,7.75,7.75,0,0,1-.55-2.95,8.73,8.73,0,0,1,.17-1.69,8.47,8.47,0,0,1,.49-1.65,9,9,0,0,1,.8-1.54,7.17,7.17,0,0,1,1.08-1.31,4,4,0,0,1,1.17-.79,7.46,7.46,0,0,1,1.42-.5,11.25,11.25,0,0,1,1.5-.27c.51-.05,1-.07,1.41-.07a11.6,11.6,0,0,1,1.44.09l1.41.2,1,.14,1,.1s.08,0,.08.07c0,.63-.07,1.25-.15,1.84s-.15,1.2-.24,1.8c0,0,0,.06-.08.06s0,0-.06-.06a4.53,4.53,0,0,0-.56-1.55,3.89,3.89,0,0,0-1-1.12,4.45,4.45,0,0,0-1.38-.68,5.7,5.7,0,0,0-1.61-.23,6.82,6.82,0,0,0-2.53.45,5.49,5.49,0,0,0-1.95,1.25,5.77,5.77,0,0,0-1.25,2,7,7,0,0,0-.44,2.53,7.69,7.69,0,0,0,.52,2.81,7.51,7.51,0,0,0,1.46,2.4,7.21,7.21,0,0,0,2.22,1.67,6.25,6.25,0,0,0,2.8.63,5.09,5.09,0,0,0,1.49-.19,3.23,3.23,0,0,0,1.11-.56,4,4,0,0,0,.85-.93,10.11,10.11,0,0,0,.71-1.33.11.11,0,0,1,.09-.05.1.1,0,0,1,.07.07,3.93,3.93,0,0,1,.06.69A5.24,5.24,0,0,1,221.3,221.42Z" transform="translate(-115.9 -66.46)"/><path d="M236.92,219a7,7,0,0,1-1.66,2.26,7.43,7.43,0,0,1-2.41,1.48,7.84,7.84,0,0,1-2.89.53,5.85,5.85,0,0,1-1.71-.27,8,8,0,0,1-1.73-.77,9.29,9.29,0,0,1-1.6-1.16,9.48,9.48,0,0,1-1.34-1.43,6.64,6.64,0,0,1-.91-1.61,4.53,4.53,0,0,1-.34-1.71,13.43,13.43,0,0,1,.36-3.32,5.69,5.69,0,0,1,3.26-4,14,14,0,0,1,3.18-1,.44.44,0,0,1,.16,0h.18a8,8,0,0,1,3.18.63,7.8,7.8,0,0,1,2.56,1.72,8.16,8.16,0,0,1,2.33,5.78A6.47,6.47,0,0,1,236.92,219Zm-1.48-5.51a7.74,7.74,0,0,0-1.15-2.34,6,6,0,0,0-1.88-1.69,5,5,0,0,0-2.57-.65,5.72,5.72,0,0,0-2.44.5,5.49,5.49,0,0,0-1.79,1.36,6,6,0,0,0-1.1,2,7.9,7.9,0,0,0-.37,2.45,8.84,8.84,0,0,0,.4,2.63,7.8,7.8,0,0,0,1.18,2.36,6.34,6.34,0,0,0,1.91,1.7,5,5,0,0,0,2.58.66,5.44,5.44,0,0,0,2.41-.52,5.29,5.29,0,0,0,1.77-1.4,5.86,5.86,0,0,0,1.08-2,8.12,8.12,0,0,0,.36-2.43A9,9,0,0,0,235.44,213.48Z" transform="translate(-115.9 -66.46)"/><path d="M253.89,208.63a.12.12,0,0,0-.08,0l-.38.11a1.88,1.88,0,0,0-.38.15.76.76,0,0,0-.29.24.55.55,0,0,0-.11.34v1.61c0,.54,0,1.08,0,1.61s0,1.08,0,1.61v1.61c0,1.2,0,2.39-.05,3.57s-.1,2.38-.2,3.59a.1.1,0,0,1-.05.07.07.07,0,0,1-.09,0,60.32,60.32,0,0,1-5.07-4.92q-2.4-2.61-4.72-5.26c-.26-.3-.49-.57-.69-.82l-.7-.79c0,.25-.05.49-.07.72s0,.48,0,.73c0,.67,0,1.34,0,2s.05,1.35.08,2,.05,1.35.08,2,0,1.35,0,2a4,4,0,0,0,.06.79,1.08,1.08,0,0,0,.2.43.69.69,0,0,0,.3.21l.36.1a2.93,2.93,0,0,1,.45.11,1.38,1.38,0,0,1,.49.26.09.09,0,0,1,0,.09.07.07,0,0,1-.07.05l-.55,0-.55-.06-.72-.07c-.24,0-.48,0-.73,0a8.51,8.51,0,0,0-1,.06l-1,.14s0,0-.06,0a.08.08,0,0,1,0-.1,2.94,2.94,0,0,1,.35-.25l.31-.2.34-.19a1,1,0,0,0,.27-.23,1.23,1.23,0,0,0,.19-.38A1.87,1.87,0,0,0,240,221v-.55c0-.24,0-.54,0-.88q0-1.08,0-2.61c0-1,0-2.07,0-3.13,0-.72,0-1.41,0-2.08s0-1.26,0-1.79,0-1,.08-1.29a1.17,1.17,0,0,1,.14-.58q.09,0,.12,0,2.91,3,5.66,5.95t5.52,6.08V220q0-2.43-.06-4.89c0-1.62-.05-3.25-.05-4.89a2.64,2.64,0,0,0-.1-.78A1.06,1.06,0,0,0,251,209a.79.79,0,0,0-.36-.19l-.39-.08-.36-.06a.6.6,0,0,1-.31-.15.06.06,0,0,1,0-.09.08.08,0,0,1,.09,0l1.14.13a7.17,7.17,0,0,0,1.14,0l.68-.06.42-.05a1.13,1.13,0,0,1,.41,0H254l0,.16Z" transform="translate(-115.9 -66.46)"/><path d="M266.94,209.76a4.71,4.71,0,0,1-.18,1.18.08.08,0,0,1-.08.06s-.06,0-.08-.06a2,2,0,0,0-.3-.79,1.49,1.49,0,0,0-.52-.48,2.3,2.3,0,0,0-.71-.25,5.44,5.44,0,0,0-.82-.07h-2.38v11.48a1.91,1.91,0,0,0,.5,1.33,2.06,2.06,0,0,0,1.25.67.09.09,0,0,1,.05.09c0,.05,0,.07-.07.07l-1.39-.1c-.46,0-.93,0-1.4,0s-.68,0-1,0l-1,.07s-.06,0-.07-.07a.09.09,0,0,1,.05-.09,3.39,3.39,0,0,0,.74-.21.85.85,0,0,0,.39-.32,1.06,1.06,0,0,0,.16-.5q0-.3,0-.78V209.37h-3.24a1.61,1.61,0,0,0-1.11.44,3,3,0,0,0-.72,1,.11.11,0,0,1-.09.05.07.07,0,0,1,0-.07,2.47,2.47,0,0,1,0-.36,3.23,3.23,0,0,1,.1-.76c.07-.25.14-.51.22-.77l.12-.38c0-.13.07-.25.09-.37s.07-.09.12,0a2.47,2.47,0,0,0,.81.33,5.88,5.88,0,0,0,.9.07h8.53a1.47,1.47,0,0,0,.34,0l.35-.09.22,0,.27,0s.06,0,.06.08v.16C267,208.91,267,209.32,266.94,209.76Z" transform="translate(-115.9 -66.46)"/><path d="M280,222.93a4.51,4.51,0,0,1-.52,0,4,4,0,0,1-.51-.05l-.41,0-.41,0c-.33,0-.66,0-1,0l-1,.07-.23,0-.24,0s-.06,0-.08-.05a.1.1,0,0,1,0-.11l1.06-.49c-.31-.84-.63-1.67-1-2.5s-.65-1.67-1-2.51h-4.17q-.13.33-.39,1c-.17.46-.34.94-.5,1.43s-.31,1-.43,1.4a3.94,3.94,0,0,0-.19,1,.5.5,0,0,0,.11.32,1.09,1.09,0,0,0,.26.21,1.29,1.29,0,0,0,.35.1l.34.05V223l-.33,0-.34,0c-.22,0-.44-.05-.67-.06l-.66,0-.71,0q-.36,0-.69.06l-.42,0-.42,0a.06.06,0,0,1-.07-.07.08.08,0,0,1,.05-.09,2.89,2.89,0,0,0,1.28-.49,2.29,2.29,0,0,0,.8-1.06c.5-1.24,1-2.49,1.41-3.73s.9-2.51,1.34-3.78c.33-.93.67-1.86,1-2.81l1-2.79s0-.06.08-.06a.08.08,0,0,1,.08.06c.07.19.14.38.22.57s.15.4.21.59c.36,1,.73,2,1.12,3s.81,2.09,1.23,3.14.87,2.08,1.32,3.1.93,2,1.42,2.93a2.15,2.15,0,0,0,.83.88,2.92,2.92,0,0,0,1.16.32s.06,0,.06.08,0,.08-.06.08Zm-7.25-12.1c-.07.18-.13.36-.19.54s-.12.35-.17.52c-.26.78-.51,1.55-.74,2.3s-.48,1.5-.75,2.28h3.57Z" transform="translate(-115.9 -66.46)"/><path d="M291.85,221.42a6.34,6.34,0,0,1-.45,1.2s0,0-.06,0c-.83.14-1.67.25-2.51.34s-1.69.13-2.56.13a8.26,8.26,0,0,1-2.94-.52,6.86,6.86,0,0,1-2.35-1.48,6.48,6.48,0,0,1-1.54-2.28,7.56,7.56,0,0,1-.55-2.95,8.72,8.72,0,0,1,.16-1.69,9.23,9.23,0,0,1,.49-1.65,9.77,9.77,0,0,1,.8-1.54,7.17,7.17,0,0,1,1.08-1.31,4.22,4.22,0,0,1,1.17-.79,7.71,7.71,0,0,1,1.42-.5,11.11,11.11,0,0,1,1.51-.27c.5-.05,1-.07,1.4-.07a11.64,11.64,0,0,1,1.45.09l1.4.2,1,.14,1,.1c.05,0,.07,0,.07.07,0,.63-.07,1.25-.14,1.84s-.16,1.2-.25,1.8a.08.08,0,0,1-.08.06s0,0-.06-.06a4.33,4.33,0,0,0-.56-1.55,3.75,3.75,0,0,0-1-1.12,4.39,4.39,0,0,0-1.37-.68,5.77,5.77,0,0,0-1.62-.23,6.82,6.82,0,0,0-2.53.45,5.49,5.49,0,0,0-1.95,1.25,5.75,5.75,0,0,0-1.24,2,6.82,6.82,0,0,0-.45,2.53,7.7,7.7,0,0,0,.53,2.81,7.48,7.48,0,0,0,1.45,2.4,7.21,7.21,0,0,0,2.22,1.67,6.28,6.28,0,0,0,2.8.63,5,5,0,0,0,1.49-.19,3.23,3.23,0,0,0,1.11-.56,3.8,3.8,0,0,0,.85-.93,11.41,11.41,0,0,0,.72-1.33.08.08,0,0,1,.08-.05.08.08,0,0,1,.07.07,3.93,3.93,0,0,1,.06.69A5.22,5.22,0,0,1,291.85,221.42Z" transform="translate(-115.9 -66.46)"/><path d="M305,209.76a4.3,4.3,0,0,1-.18,1.18.08.08,0,0,1-.08.06.07.07,0,0,1-.07-.06,2.21,2.21,0,0,0-.31-.79,1.49,1.49,0,0,0-.52-.48,2.21,2.21,0,0,0-.71-.25,5.33,5.33,0,0,0-.82-.07h-2.38v11.48a1.91,1.91,0,0,0,.5,1.33,2.09,2.09,0,0,0,1.25.67.08.08,0,0,1,0,.09c0,.05,0,.07-.07.07l-1.39-.1c-.46,0-.93,0-1.4,0s-.68,0-1,0l-1,.07a.06.06,0,0,1-.07-.07.08.08,0,0,1,.05-.09,3.28,3.28,0,0,0,.73-.21.93.93,0,0,0,.4-.32,1.18,1.18,0,0,0,.15-.5q0-.3,0-.78V209.37h-3.24a1.61,1.61,0,0,0-1.11.44,3,3,0,0,0-.72,1,.09.09,0,0,1-.09.05s0,0,0-.07a1.59,1.59,0,0,1,0-.36,3.22,3.22,0,0,1,.09-.76c.07-.25.14-.51.22-.77l.12-.38c0-.13.07-.25.1-.37s.06-.09.11,0a2.47,2.47,0,0,0,.81.33,5.88,5.88,0,0,0,.9.07h8.53a1.55,1.55,0,0,0,.35,0l.34-.09.23,0,.26,0s.06,0,.06.08v.16C305,208.91,305,209.32,305,209.76Z" transform="translate(-115.9 -66.46)"/><path d="M123.58,270.87a2.61,2.61,0,0,1-2.91,2.32c-2,0-3.18-1.26-3.18-2.64A2.7,2.7,0,0,1,120.1,268c.25-.06.5-.12.5-.37a.47.47,0,0,0-.1-.26.44.44,0,0,1-.13-.22s0-.08.13-.08c.39,0,.87.38.87.52s-.17.2-.28.38c1.68.37,2.42,1.29,2.51,2.5Zm-5.22-.28a2.08,2.08,0,0,0,2.29,2.06,2.06,2.06,0,1,0,0-4.12A2.08,2.08,0,0,0,118.36,270.59Zm8.18-4.21c0-.26-.44-.59-1.23-.93-.19-.07-.3-.15-.3-.22s.14-.15.46-.18a8.92,8.92,0,0,1,1.67.44c.21.08.25.18.25.3s0,.22,0,.38v8.09c0,2.53-.09,2.88-.33,3.4-.1.16-.2.25-.28.25s-.19-.17-.19-.6Z" transform="translate(-115.9 -66.46)"/><path d="M138.48,267.05c0-.31-.43-.57-1-.8-.22-.08-.36-.17-.36-.24s.12-.11.36-.13a6.42,6.42,0,0,1,1.42.3c.33.08.4.16.4.3s-.06.3-.06.57v6.24a10.36,10.36,0,0,1-.27,3.09c-.11.29-.25.45-.35.45s-.16-.13-.16-.45v-5.71h-.55c-.44.07-.5.25-.69.25a2,2,0,0,1-.73-.3c-.09.71-.2,1.43-.3,1.92.4.09.62.22.62.33s-.32.18-1,.18-2,.06-2.63.09c-.06.56-.29.81-.43.81s-.18-.36-.23-1.24l-.26-3.58c0-.24-.18-.38-.79-.59-.16,0-.28-.09-.28-.16s.11-.12.38-.19a5.59,5.59,0,0,1,1.55.27l2.52-.08a2.5,2.5,0,0,1,.92-.11c.44,0,.58.07.58.16s-.28.33-.32.5c-.07.37-.15.84-.26,1.33a6.11,6.11,0,0,0,.73,0c.44,0,.85,0,1.17,0Zm-5.1,1.77c-.17.07-.24,0-.24.27l.09,3.67c.4,0,1.11,0,1.73,0,.38-.05.56-.09.81-.13.06-1,.11-2.69.12-3.87Zm7.39-2.5c0-.25-.48-.55-1.16-.91-.22-.07-.35-.17-.35-.23s.17-.14.54-.14a12.86,12.86,0,0,1,1.39.34c.38.12.46.22.46.36s0,.22-.05.4v8.7a9.81,9.81,0,0,1-.23,2.61c-.13.3-.27.47-.38.47s-.22-.19-.22-.63Z" transform="translate(-115.9 -66.46)"/><path d="M147.71,266.73c.25,0,.37-.14.37-.3a.43.43,0,0,0-.05-.21c-.1-.08-.17-.16-.17-.23s0-.09.17-.09c.37,0,.82.27.82.46s-.18.27-.23.4a2.45,2.45,0,0,1,2.44,2.37c0,1.34-1.12,2.34-2.91,2.34a2.52,2.52,0,0,1-2.8-2.38,2.4,2.4,0,0,1,2.26-2.33Zm-1.53,2.38a1.82,1.82,0,0,0,2,1.83,1.85,1.85,0,1,0,0-3.66A1.82,1.82,0,0,0,146.18,269.11Zm2.62,6.46c0-.15-.29-.25-.73-.36-.14,0-.26-.08-.26-.14s.15-.17.62-.17a4.85,4.85,0,0,1,1.34.16c1.27,0,2,0,3.34-.06a3.84,3.84,0,0,0,.73-.12c0-.22.08-1,.13-1.66-.88,0-2.74.08-4.07.13-.4.09-.47.24-.71.24s-1.34-.45-1.34-.62.07-.07.22-.07a.79.79,0,0,1,.2,0c.47,0,1.13.06,1.89.06,1.11,0,2.42-.05,3.5-.12.26,0,.24-.1.52-.1a2,2,0,0,1,.32,0c.41,0,.54.09.54.2s-.14.24-.19.37a8.63,8.63,0,0,0-.49,1.46c.38.07.57.21.57.32s-.17.19-.47.19c-1,0-3.09.07-4.56.08-.14.09-.25.06-.25.22v1.2c0,.26.14.32.34.32h1.17l2.37,0c.82-.09.56-.36,1.41-.36.37,0,1.06,0,1.06.4,0,.17-.17.32-.47.32H150c-1,0-1.22-.36-1.22-.76Zm5.19-9.21c0-.25-.42-.57-1.19-.86-.24-.08-.36-.16-.36-.23s.16-.14.49-.16c.07,0,2,.24,2,.67,0,.1,0,.22,0,.4v3.93a7.28,7.28,0,0,1-.22,1.9c-.12.31-.28.48-.4.48s-.22-.19-.22-.63Z" transform="translate(-115.9 -66.46)"/><path d="M121.23,337.1c-.89,0-2.06.06-2.79.11-.5,0-.61.21-.91.21a3.5,3.5,0,0,1-1.63-.68s0-.07.15-.07a.75.75,0,0,1,.23,0,13,13,0,0,0,1.89.07c1.75,0,4.41-.07,6.92-.17.56,0,.38-.2,1.11-.2.34,0,1,0,1,.37,0,.17-.17.32-.43.32h0c-.75,0-2.11-.08-3.24-.08a14.56,14.56,0,0,0-1.51.05,9.2,9.2,0,0,1-.2,2.91c-.11.34-.26.53-.39.53s-.22-.18-.22-.58Zm-2.49-1.68c0-.2-.22-2.53-.29-3,0-.12-.42-.31-.68-.41s-.25-.11-.25-.19.1-.11.4-.12,1.23.17,1.47.17c.84,0,3.21-.07,3.66-.1s.22-.1.64-.1,1,0,1,.2-.25.25-.32.44c-.18.95-.38,1.82-.51,2.36.35.08.5.2.5.3s-.17.2-.42.2c-.8,0-3.65.08-4.49.09-.12.46-.27.72-.4.72S118.81,335.8,118.74,335.42Zm0,4.48c0-.24-.3-.36-.94-.55-.14,0-.24-.09-.24-.14s.12-.12.39-.19a9.43,9.43,0,0,1,1.35.09c.23.05.28.13.28.24s0,.17,0,.31c0,.53,0,1.2,0,1.64s.16.4.58.42l2.68,0c.92-.06.5-.36,1.55-.36.3,0,1,0,1,.43,0,.14-.12.27-.34.27h-4.92c-.84,0-1.29-.22-1.34-.83Zm3.82-5a3.21,3.21,0,0,0,.85-.16c0-1.12.09-2.15.08-2.61-.69,0-3.06.09-4,.12-.06.07-.14.07-.14.19l.12,2.51Z" transform="translate(-115.9 -66.46)"/><path d="M137.21,332.29c0-.32-.52-.6-1.09-.85-.25-.08-.38-.17-.38-.23s.12-.12.4-.14c.11,0,1.9.28,1.9.64a3.28,3.28,0,0,0,0,.34l0,7.74c0,1.73-.17,3-.5,3-.13,0-.22-.16-.26-.9v-3.26a33.26,33.26,0,0,1-5.84,1.35c-.36.1-.4.26-.63.26s-1.82-.65-1.82-.91c0-.05.05-.06.15-.06a1.1,1.1,0,0,1,.28,0,5.54,5.54,0,0,0,1.11.1,30.81,30.81,0,0,0,6.75-1Zm-4.8.5c.3,0,.36-.2.36-.27a.4.4,0,0,0-.07-.2.45.45,0,0,1-.15-.22c0-.05,0-.08.15-.08.41,0,.74.27.74.42s-.1.23-.15.37a2.14,2.14,0,0,1,2,2,2.25,2.25,0,0,1-2.45,2.07,2.28,2.28,0,0,1-2.55-2.09C130.25,333.91,130.92,333,132.41,332.79ZM131,334.85a1.61,1.61,0,0,0,1.77,1.56,1.57,1.57,0,1,0-1.77-1.56Z" transform="translate(-115.9 -66.46)"/><path d="M143.82,333.5c-.26.06-.31.2-.48.2a2.56,2.56,0,0,1-1.15-.63s0-.05.13-.05l.31,0a8.54,8.54,0,0,0,1.23.08c.85,0,1.78-.07,2.28-.1.34,0,.13-.13.69-.13.18,0,.59,0,.59.16s-.14.2-.23.34a16.85,16.85,0,0,1-1.53,2.16c1.2,1.22,1.08.75,1.71,1.4a1.93,1.93,0,0,1,.51,1c0,.16-.07.25-.19.25a.41.41,0,0,1-.28-.16c-.59-.65-1.35-1.6-2-2.35a11.29,11.29,0,0,1-3.94,2.74s0,0,0,0,.08-.11.27-.22a13,13,0,0,0,4.61-4.91C145.93,333.36,144.06,333.45,143.82,333.5Zm1.22,6.29c0-.25-.31-.37-.95-.57-.13,0-.22-.07-.22-.13s.1-.13.39-.18a9.68,9.68,0,0,1,1.35.09c.21.05.26.11.26.22s0,.19,0,.34c0,.55,0,1.23,0,1.69,0,.27.17.39.6.41l2.62,0c.93-.07.48-.35,1.61-.35.4,0,.92,0,.92.42a.29.29,0,0,1-.33.28h-4.87c-.82,0-1.3-.22-1.33-.85Zm4.68-7.49c0-.3-.5-.56-1-.76-.23-.07-.43-.17-.43-.25s.12-.13.47-.15a5,5,0,0,1,1.36.32c.33.13.39.21.39.34s0,.2,0,.36v5.75c0,1.89-.4,2.09-.52,2.09s-.24-.29-.24-.9v-3.89l-1.29.09c-.34.06-.36.2-.55.2s-1.11-.3-1.11-.49.06-.07.19-.07h.18c.82,0,1.58-.05,2.58-.11Z" transform="translate(-115.9 -66.46)"/><path d="M157.46,338.54a1.94,1.94,0,0,1-2-1.77c0-.76.59-1.52,1.86-1.73a.39.39,0,0,0,.13-.29.64.64,0,0,0-.22-.43c-.4,0-.88,0-1.44.07-.29.05-.37.17-.54.17s-1.14-.51-1.14-.66,0-.06.12-.06l.24,0a9.93,9.93,0,0,0,1.9.15c.72,0,1.52,0,2.28-.11h.07c.7-.14.49-.39,1.33-.39.31,0,.86,0,.86.32,0,.15-.16.3-.48.32-.54,0-1.81.06-2.67.11.09.23.27.28.31.42v.05c0,.16-.08.17-.08.28v0c1.28.17,1.9,1,1.9,1.76a1.76,1.76,0,0,1-1.74,1.67v1.13a21.92,21.92,0,0,0,3.6-.69v-6.75c0-.2-.47-.49-1.11-.72-.23-.07-.35-.14-.35-.2s.13-.13.44-.17a5.54,5.54,0,0,1,1.53.32c.25.1.3.16.3.27s0,.2,0,.36v5.1l.66,0c.34-.1.21-.33,1.2-.35.38,0,.56.21.56.38s-.13.28-.36.29c-.57,0-1.77.06-2.06.06v2.33a9.42,9.42,0,0,1-.25,2.61c-.09.25-.23.44-.34.44s-.18-.14-.19-.5v-3.19a49.43,49.43,0,0,1-5.67,1.44c-.24.06-.27.2-.46.2s-1.8-.68-1.8-.91c0-.05.06-.08.14-.08a.85.85,0,0,1,.24,0,4.8,4.8,0,0,0,1,.1,11.52,11.52,0,0,0,2.22-.25ZM157,333a1.65,1.65,0,0,1-1-.78s0-.07.1-.07l.27.05a12.78,12.78,0,0,0,2.26.19c.41,0,.67.2.67.36s-.44.25-1,.25Zm-.78,3.73a1.35,1.35,0,0,0,1.51,1.29,1.3,1.3,0,1,0,0-2.59A1.35,1.35,0,0,0,156.23,336.75Z" transform="translate(-115.9 -66.46)"/><path d="M124,299.91a3.57,3.57,0,0,1-3,1.89,3.44,3.44,0,0,1-3.33-3.56,3.79,3.79,0,0,1,3.67-4c1.1,0,2.47.59,2.47,1.53a.56.56,0,0,1-.59.59c-.55,0-.58-.45-.78-.83a1.44,1.44,0,0,0-1.5-.9c-1.2,0-2.27,1.2-2.27,3.33,0,1.92.91,3.26,2.6,3.26a3.06,3.06,0,0,0,2.54-1.43Z" transform="translate(-115.9 -66.46)"/><path d="M132.66,298c0,2-1.09,3.77-3.45,3.77s-3.46-1.82-3.46-3.77,1.08-3.81,3.46-3.81S132.66,296.08,132.66,298Zm-5.93,0c0,1.76.76,3.41,2.48,3.41s2.45-1.65,2.45-3.41-.76-3.45-2.45-3.45S126.73,296.27,126.73,298Z" transform="translate(-115.9 -66.46)"/><path d="M135,299.38a4.1,4.1,0,0,0,3.34,2,1.57,1.57,0,0,0,1.75-1.56c0-.7-.54-1.08-2.13-1.58-2.37-.72-2.92-1.38-2.92-2.36s.91-1.67,2.37-1.67a9.75,9.75,0,0,1,1.62.27.33.33,0,0,0,.15,0l.57-.25.86,2.16-.26.12a3.78,3.78,0,0,0-2.94-1.89c-.94,0-1.59.45-1.59,1.29s.76,1.06,2.14,1.48c2.07.64,2.89,1.25,2.89,2.46s-1.26,2-2.51,2a14.28,14.28,0,0,1-1.79-.3.58.58,0,0,0-.23,0l-.62.26-.88-2.32Z" transform="translate(-115.9 -66.46)"/><path d="M149.22,299.91a3.58,3.58,0,0,1-3,1.89,3.45,3.45,0,0,1-3.34-3.56,3.8,3.8,0,0,1,3.67-4c1.11,0,2.47.59,2.47,1.53a.56.56,0,0,1-.59.59c-.55,0-.58-.45-.77-.83a1.47,1.47,0,0,0-1.51-.9c-1.19,0-2.27,1.2-2.27,3.33,0,1.92.91,3.26,2.61,3.26a3,3,0,0,0,2.53-1.43Z" transform="translate(-115.9 -66.46)"/><path d="M150.72,294.77l1.92-.55V300c0,.9.36,1.23,1.42,1.23a3.48,3.48,0,0,0,2.35-.95v-4.55c0-.47-.2-.67-.95-.67l-.06-.24,1.92-.55v6c0,.65.3,1,1,1v.31c-.8,0-1.15.08-1.91.16v-1a4.19,4.19,0,0,1-2.67,1.18,1.77,1.77,0,0,1-2-1.85v-4.23c0-.51-.22-.71-.94-.71Z" transform="translate(-115.9 -66.46)"/><path d="M160.78,294.31h5.08v.29l-5.08,6.58h2.48c.94,0,1.6-.41,2.53-2.11l.21.09-.89,2.4h-5.46v-.24l5.06-6.63h-2.26c-.86,0-1.56.67-2.35,1.9l-.23-.08Z" transform="translate(-115.9 -66.46)"/><path d="M179,301.34a5.9,5.9,0,0,1-3.62,1.22c-2.84,0-5.11-1.65-5.11-4.5a5.21,5.21,0,0,1,5.38-5.06c2.67,0,4.18,1.55,4.18,3.79s-1.47,3.54-2.64,3.54c-.75,0-1.11-.34-1.15-1.16a1.93,1.93,0,0,1-1.69,1.16c-.81,0-1.52-.56-1.52-1.79s1.19-3.07,2.66-3.07a1.21,1.21,0,0,1,1.23,1.07l.29-1h.61l-.92,3.37a4.71,4.71,0,0,0-.09.64c0,.34.37.5.68.5.52,0,2.24-.94,2.24-3.35a3.45,3.45,0,0,0-3.75-3.42,4.68,4.68,0,0,0-4.86,4.94c0,2.89,2.46,4,4.5,4a5.84,5.84,0,0,0,3.41-1.12Zm-5.45-2.46c0,.75.29,1.16.91,1.16,1.2,0,2-2.12,2-3.17,0-.61-.3-1.18-.93-1.18C174.44,295.69,173.51,297.3,173.51,298.88Z" transform="translate(-115.9 -66.46)"/><path d="M184.86,301.56v-.38c.76,0,1-.23,1-.89v-4.43c0-.62-.17-.81-1-.81l0-.24,1.91-.59v1.33a4.31,4.31,0,0,1,2.78-1.32c1.24,0,1.92.81,1.92,2.16v3.9c0,.66.29.89,1,.89v.38h-2.93v-.38c.73,0,1-.23,1-.89v-4c0-.85-.29-1.44-1.3-1.44a3.66,3.66,0,0,0-2.49,1.12v4.27c0,.66.31.89,1,.89v.38Z" transform="translate(-115.9 -66.46)"/><path d="M200.8,301.06a1.42,1.42,0,0,1-1.21.74c-.68,0-.82-.5-.82-1a3.5,3.5,0,0,1-2.59,1c-1.47,0-2.14-.77-2.14-1.76,0-1.35,1.58-2.38,4.73-2.86V296.1c0-.91-.44-1.52-1.35-1.52-1.15,0-1.61.32-1.88,1.1-.12.33-.29.63-.67.63a.57.57,0,0,1-.6-.65c0-.76,1.24-1.44,3.23-1.44a1.93,1.93,0,0,1,2.18,2v4.2c0,.45,0,.82.29.82a.94.94,0,0,0,.7-.35Zm-2-3.47c-2,.22-3.73,1.06-3.73,2.42,0,.69.52,1.19,1.43,1.19a2.88,2.88,0,0,0,2.3-.87Z" transform="translate(-115.9 -66.46)"/><path d="M201.76,294.31h3.05v.38c-.6,0-1,.06-1,.45a2,2,0,0,0,0,.2l2.1,5,1.91-5a.39.39,0,0,0,0-.18c0-.26-.3-.47-1-.47v-.38h2.69v.38a1.19,1.19,0,0,0-1.25.65l-2.54,6.46h-.25l-2.64-6.46c-.26-.56-.47-.65-1.13-.65Z" transform="translate(-115.9 -66.46)"/><path d="M212.07,297.75c0,2.64,1.32,3.52,2.77,3.52a3.42,3.42,0,0,0,2.85-1.44l.22.18a3.64,3.64,0,0,1-3.28,1.79,3.8,3.8,0,0,1-.08-7.58c2,0,3.25,1.29,3.25,3.53Zm4.74-.42c-.09-1.9-.91-2.75-2.27-2.75a2.69,2.69,0,0,0-2.47,2.75Z" transform="translate(-115.9 -66.46)"/><path d="M219.49,301.56v-.38c.6,0,1-.2,1-.79v-4.65c0-.53-.15-.7-.93-.7l-.07-.23,1.91-.74V296c.94-.81,2.11-1.88,3.11-1.88a.78.78,0,0,1,.79.71.77.77,0,0,1-.79.7c-.5,0-.61-.41-1-.41s-1.38.79-2.15,1.42v3.9c0,.59.23.79,1,.79v.38Z" transform="translate(-115.9 -66.46)"/><path d="M229,300.89a.84.84,0,1,1-1.67,0,.84.84,0,1,1,1.67,0Z" transform="translate(-115.9 -66.46)"/><path d="M237.68,299.91a3.58,3.58,0,0,1-3,1.89,3.44,3.44,0,0,1-3.33-3.56,3.8,3.8,0,0,1,3.67-4c1.11,0,2.47.59,2.47,1.53a.56.56,0,0,1-.59.59c-.55,0-.58-.45-.77-.83a1.47,1.47,0,0,0-1.51-.9c-1.19,0-2.27,1.2-2.27,3.33,0,1.92.91,3.26,2.61,3.26a3,3,0,0,0,2.53-1.43Z" transform="translate(-115.9 -66.46)"/><path d="M246.39,298c0,2-1.09,3.77-3.46,3.77s-3.46-1.82-3.46-3.77,1.08-3.81,3.46-3.81S246.39,296.08,246.39,298Zm-5.93,0c0,1.76.76,3.41,2.47,3.41s2.46-1.65,2.46-3.41-.76-3.45-2.46-3.45S240.46,296.27,240.46,298Z" transform="translate(-115.9 -66.46)"/><path d="M248,301.56v-.36c.75,0,1.07-.28,1.07-.85V295.9c0-.68-.32-.82-1-.82l-.06-.25,2-.61v1.36a4,4,0,0,1,2.72-1.36,1.77,1.77,0,0,1,1.73,1.32,4.13,4.13,0,0,1,2.71-1.32,1.71,1.71,0,0,1,1.76,1.67v4.46c0,.57.38.85,1.08.85v.36h-3v-.36c.7,0,1-.28,1-.85v-4.22a1.26,1.26,0,0,0-1.37-1.26,3.34,3.34,0,0,0-2.19,1.12v4.36c0,.57.33.85,1,.85v.36h-2.93v-.36c.73,0,1-.28,1-.85v-4.23a1.24,1.24,0,0,0-1.28-1.22,3,3,0,0,0-2.26,1.17v4.28c0,.57.29.85,1.05.85v.36Z" transform="translate(-115.9 -66.46)"/><path d="M121.79,359.77a2.9,2.9,0,0,1,2.51,1.35,6.52,6.52,0,0,1,1,3.78,6.64,6.64,0,0,1-.94,3.78,2.89,2.89,0,0,1-4.92,0,6.52,6.52,0,0,1-1-3.75,6.76,6.76,0,0,1,.92-3.75A2.82,2.82,0,0,1,121.79,359.77Zm0,.51a1.6,1.6,0,0,0-1.58,1.1,10,10,0,0,0-.45,3.51,10.11,10.11,0,0,0,.45,3.54,1.6,1.6,0,0,0,1.58,1.11,1.63,1.63,0,0,0,1.56-1.09,9.16,9.16,0,0,0,.48-3.45,10,10,0,0,0-.45-3.53A1.65,1.65,0,0,0,121.84,360.28Z" transform="translate(-115.9 -66.46)"/><path d="M131.52,360h.34v8.88a.38.38,0,0,0,.18.34.81.81,0,0,0,.46.12h1.39v.54h-5.12v-.54H130c.49,0,.73-.21.73-.63V362a.44.44,0,0,0-.17-.35.64.64,0,0,0-.43-.15H128.5V361a8.64,8.64,0,0,0,1.64-.32A4.93,4.93,0,0,0,131.52,360Z" transform="translate(-115.9 -66.46)"/><path d="M140.47,359.77a2.9,2.9,0,0,1,2.51,1.35,6.52,6.52,0,0,1,.94,3.78,6.64,6.64,0,0,1-.93,3.78,2.85,2.85,0,0,1-2.44,1.37,2.89,2.89,0,0,1-2.49-1.38,6.6,6.6,0,0,1-.94-3.75,6.76,6.76,0,0,1,.92-3.75A2.82,2.82,0,0,1,140.47,359.77Zm.05.51a1.6,1.6,0,0,0-1.58,1.1,10,10,0,0,0-.45,3.51,10.11,10.11,0,0,0,.45,3.54,1.6,1.6,0,0,0,1.58,1.11,1.63,1.63,0,0,0,1.56-1.09,9.16,9.16,0,0,0,.48-3.45,10,10,0,0,0-.45-3.53A1.65,1.65,0,0,0,140.52,360.28Z" transform="translate(-115.9 -66.46)"/><path d="M147.37,365.84v-1.07h5.33v1.07Z" transform="translate(-115.9 -66.46)"/><path d="M156.51,363.16l.5-3.39a6.24,6.24,0,0,0,1.53.2H163v.31c-.47.83-.84,1.52-1.1,2.07a16.9,16.9,0,0,0-1,2.54,20.37,20.37,0,0,0-.51,3.82c-.06.89-.35,1.34-.86,1.34s-.77-.35-.77-1a7.7,7.7,0,0,1,.53-2.3,26.71,26.71,0,0,1,1.74-3.8l1-1.83h-3.88a.74.74,0,0,0-.71.44,9.47,9.47,0,0,0-.43,1.64Z" transform="translate(-115.9 -66.46)"/><path d="M165.85,363.16l.5-3.39a6.24,6.24,0,0,0,1.53.2h4.43v.31c-.47.83-.84,1.52-1.1,2.07a15.87,15.87,0,0,0-1,2.54,20.37,20.37,0,0,0-.51,3.82c-.06.89-.35,1.34-.86,1.34s-.77-.35-.77-1a7.7,7.7,0,0,1,.53-2.3,26.71,26.71,0,0,1,1.74-3.8l1-1.83h-3.88a.74.74,0,0,0-.71.44,8.58,8.58,0,0,0-.43,1.64Z" transform="translate(-115.9 -66.46)"/><path d="M174.84,365.33a6.43,6.43,0,0,1,1.21-4,3.5,3.5,0,0,1,2.88-1.54,2.77,2.77,0,0,1,1.65.49,1.43,1.43,0,0,1,.7,1.19,1,1,0,0,1-.26.72.9.9,0,0,1-.68.28.85.85,0,0,1-.61-.24.75.75,0,0,1-.25-.56,1.33,1.33,0,0,1,.22-.55.8.8,0,0,0,.11-.32.4.4,0,0,0-.24-.35,1.24,1.24,0,0,0-.66-.15,2.18,2.18,0,0,0-1.89,1.19,5.86,5.86,0,0,0-.73,3.12v.58a3.94,3.94,0,0,1,1.1-1,2.81,2.81,0,0,1,1.44-.37,2.69,2.69,0,0,1,2,.79,2.74,2.74,0,0,1,.81,2.05,3.43,3.43,0,0,1-.92,2.44,3.1,3.1,0,0,1-2.36,1,3,3,0,0,1-2.54-1.3A5.59,5.59,0,0,1,174.84,365.33Zm3.6-.84a1.84,1.84,0,0,0-1.47.66,2.66,2.66,0,0,0-.55,1.79,3.06,3.06,0,0,0,.53,1.91,1.71,1.71,0,0,0,1.41.69,1.66,1.66,0,0,0,1.38-.64,3.06,3.06,0,0,0,.5-1.89Q180.24,364.49,178.44,364.49Z" transform="translate(-115.9 -66.46)"/><path d="M185.08,364.29l.16-2.11c0-.32,0-.77,0-1.33s.05-.93.05-1.08c.57.13,1.11.24,1.64.31a10.27,10.27,0,0,0,1.27.1,4.57,4.57,0,0,0,1.16-.13l.77-.28.06.1a1.31,1.31,0,0,1-.63,1,2.9,2.9,0,0,1-1.84.59,5.9,5.9,0,0,1-1-.07c-.31,0-.65-.1-1-.17l-.25,2.7a5.37,5.37,0,0,1,1-.39,3.22,3.22,0,0,1,1-.16,3.26,3.26,0,0,1,2.33.92,3.06,3.06,0,0,1,1,2.32,3.27,3.27,0,0,1-1,2.49,3.62,3.62,0,0,1-2.61,1,2.87,2.87,0,0,1-2-.69,2.2,2.2,0,0,1-.77-1.69,1.45,1.45,0,0,1,.24-.89.73.73,0,0,1,.63-.32.83.83,0,0,1,.62.25,1,1,0,0,1,.24.67.62.62,0,0,1-.39.6l-.31.17a.36.36,0,0,0-.16.26,1,1,0,0,0,.52.76,2.2,2.2,0,0,0,1.31.37c1.51,0,2.27-1,2.27-2.87a3.08,3.08,0,0,0-.58-2,2,2,0,0,0-1.61-.68,3,3,0,0,0-1.69.61,1.93,1.93,0,0,1-.13.6.44.44,0,0,1-.39.25c-.21,0-.31-.13-.31-.39a.75.75,0,0,1,.17-.47Z" transform="translate(-115.9 -66.46)"/><path d="M194.46,365.84v-1.07h5.33v1.07Z" transform="translate(-115.9 -66.46)"/><path d="M207.91,365.69l-1.86,1.58a10.1,10.1,0,0,0-1.39,1.44h3.57a.89.89,0,0,0,.82-.36,5.85,5.85,0,0,0,.46-1.47H210l-.22,3h-6.4v-.4c.48-.56,1-1.08,1.38-1.57,0,0,.43-.46,1.24-1.37l1.06-1.16a6.63,6.63,0,0,0,1.07-1.59,3.88,3.88,0,0,0,.37-1.54,2,2,0,0,0-.47-1.38,1.74,1.74,0,0,0-1.34-.51,2.69,2.69,0,0,0-1.63.47,1.2,1.2,0,0,0-.6,1,.37.37,0,0,0,.1.29,1.25,1.25,0,0,0,.37.15.86.86,0,0,1,.72.86.79.79,0,0,1-.25.6.85.85,0,0,1-.61.22,1,1,0,0,1-.77-.39,1.62,1.62,0,0,1-.31-1,2.48,2.48,0,0,1,.87-2,3.31,3.31,0,0,1,2.25-.76,3.23,3.23,0,0,1,2.21.76,2.44,2.44,0,0,1,.87,1.93,3,3,0,0,1-.49,1.59A7.39,7.39,0,0,1,207.91,365.69Z" transform="translate(-115.9 -66.46)"/><path d="M216.37,360h.34v8.88a.38.38,0,0,0,.18.34.81.81,0,0,0,.46.12h1.39v.54h-5.12v-.54h1.18c.49,0,.73-.21.73-.63V362a.44.44,0,0,0-.17-.35.64.64,0,0,0-.43-.15h-1.58V361a8.64,8.64,0,0,0,1.64-.32A4.93,4.93,0,0,0,216.37,360Z" transform="translate(-115.9 -66.46)"/><path d="M225.32,359.77a2.9,2.9,0,0,1,2.51,1.35,6.52,6.52,0,0,1,.94,3.78,6.64,6.64,0,0,1-.93,3.78,2.85,2.85,0,0,1-2.45,1.37,2.89,2.89,0,0,1-2.48-1.38,6.6,6.6,0,0,1-.94-3.75,6.76,6.76,0,0,1,.92-3.75A2.82,2.82,0,0,1,225.32,359.77Zm.05.51a1.6,1.6,0,0,0-1.58,1.1,10,10,0,0,0-.45,3.51,10.11,10.11,0,0,0,.45,3.54,1.6,1.6,0,0,0,1.58,1.11,1.63,1.63,0,0,0,1.56-1.09,9.16,9.16,0,0,0,.48-3.45,10,10,0,0,0-.45-3.53A1.65,1.65,0,0,0,225.37,360.28Z" transform="translate(-115.9 -66.46)"/><path d="M234.46,364.39c1.21,0,1.81-.64,1.81-1.93,0-1.45-.57-2.18-1.72-2.18a2.56,2.56,0,0,0-1.22.28c-.34.19-.51.37-.51.56a.3.3,0,0,0,.1.22c.06.06.12.13.18.18l.24.35a.68.68,0,0,1,.14.41.64.64,0,0,1-.22.51.85.85,0,0,1-.55.19.7.7,0,0,1-.59-.28,1.18,1.18,0,0,1-.22-.76,1.94,1.94,0,0,1,.76-1.54,3,3,0,0,1,2-.63,3.12,3.12,0,0,1,2.14.71,2.33,2.33,0,0,1,.8,1.8,2,2,0,0,1-.47,1.37,3.64,3.64,0,0,1-1.46.92,3.3,3.3,0,0,1,1.73,1,2.43,2.43,0,0,1,.61,1.68,2.54,2.54,0,0,1-.95,2,3.77,3.77,0,0,1-2.51.79,3.44,3.44,0,0,1-2.21-.64,2.16,2.16,0,0,1-.8-1.75,1.34,1.34,0,0,1,.24-.83.81.81,0,0,1,.68-.31.75.75,0,0,1,.59.24,1,1,0,0,1,.21.64.77.77,0,0,1-.18.54,2.76,2.76,0,0,1-.53.35.24.24,0,0,0-.1.21.89.89,0,0,0,.53.73,2.58,2.58,0,0,0,1.39.33A2.18,2.18,0,0,0,236,369a2.56,2.56,0,0,0,.52-1.77,2.88,2.88,0,0,0-.44-1.77,1.65,1.65,0,0,0-1.4-.57c-.12,0-.34,0-.67.07l-.35,0c-.29,0-.44-.1-.44-.3a.24.24,0,0,1,.13-.23.71.71,0,0,1,.36-.08Z" transform="translate(-115.9 -66.46)"/></svg>