<svg id="Layer_1" data-name="Layer 1" xmlns="http://www.w3.org/2000/svg" viewBox="0 0 963.18 230.71"><defs><style>.cls-1{fill:#ffca02;}</style></defs><title>logo</title><path class="cls-1" d="M426.82,340.92l.83-.24,59.29-14.85V399l-.72.12L426.82,414Zm10.93,19.48,10.93-2.85v43.6l15.68-4V353.63l11.77-3V336.05l-38.38,9.5Z" transform="translate(-426.82 -325.83)"/><path class="cls-1" d="M486.93,340.92l.83-.24,59.41-14.85V399l-.84.12L486.93,414ZM522,368.36l-10,2.38V342.11L496.08,346v58.21l15.92-4V385.59l10-2.5v14.74l15.8-3.92V335.57l-15.8,4Z" transform="translate(-426.82 -325.83)"/><path class="cls-1" d="M547.16,340.92l.83-.24,59.4-14.85V399l-.83.12L547.16,414Zm46.57,10.45V336.76l-33.26,8.32v58.09l33.62-8.31V380.24l-17.82,4.4v-7.37L593,373.11V358.86l-16.75,4.27v-7.48Z" transform="translate(-426.82 -325.83)"/><path class="cls-1" d="M727.85,399l-.83.12L667.62,414V340.92l.83-.24,59.4-14.85Zm-53.11,5.83,16-4V371.93l12.36,25.66,17.58-4.28V335L704,339.26V364l-9.86-22.22-19.37,4.75Z" transform="translate(-426.82 -325.83)"/><path class="cls-1" d="M727.84,340.92l.83-.24,59.41-14.85V399l-.83.12L727.84,414Zm46.58,10.45V336.76l-33.27,8.32v58.09l33.62-8.31V380.24L757,384.64v-7.37l16.75-4.16V358.86L757,363.13v-7.48Z" transform="translate(-426.82 -325.83)"/><path class="cls-1" d="M788.07,340.92l.83-.24,59.29-14.85V399l-.72.12L788.07,414Zm52.75-5.82-10.69,2.61-3,32.32-3.69-30.54-11.52,3-2.26,22.69h-2.14l-1.9-21.26-10.21,2.61,6.41,56.55,12.95-3.2L818,370.26l3.45,27.92,12.59-3.09Z" transform="translate(-426.82 -325.83)"/><path class="cls-1" d="M487.06,541.57l-.84.12-59.4,14.85V483.47l.83-.24,59.41-14.85Zm-9.75-44.67v-17h-2.85a47.24,47.24,0,0,0-12.23,1.31,34.71,34.71,0,0,0-7.49,2.61A35.14,35.14,0,0,0,440,496.78,36.65,36.65,0,0,0,434.07,518c.24,8.44,2.38,15,6.77,19.37,4.4,4.75,10.57,6.3,17.94,4.63l1-.23a50.09,50.09,0,0,0,19.6-9.86l.36-.12V503l-22.93,5.7v12.59l7.6-1.9v6.06l-.35.36a9.93,9.93,0,0,1-4.75,1.66.9.9,0,0,1-.6.12c-2.61,0-4.63-1.31-6.06-4.16a23.19,23.19,0,0,1-1.78-9.86,23.92,23.92,0,0,1,3.56-12.71,16.59,16.59,0,0,1,8-6.06,16,16,0,0,1,13.91,1.42Z" transform="translate(-426.82 -325.83)"/><path class="cls-1" d="M547.29,541.57l-.84.12-59.4,14.85V483.47l.83-.24,59.41-14.85Zm-13.43-19L516.28,527V483.59l-15.92,4v58.1l33.5-8.32Z" transform="translate(-426.82 -325.83)"/><path class="cls-1" d="M547.28,483.47l.83-.24,59.4-14.85v73.19l-.83.12-59.4,14.85Zm25,49.54,9.62-2.37v10.22l16.63-4.16V498.2c0-5.58-2-10.09-5.94-12.95a15.69,15.69,0,0,0-9.62-3,35,35,0,0,0-5.82.72,27.41,27.41,0,0,0-15,9.62,24.33,24.33,0,0,0-5.94,15.56v39.21l16-4.16Zm0-27.8a8.92,8.92,0,0,1,1.3-4.39c1.55-2.5,5-3.09,6.78-1.43a5.1,5.1,0,0,1,1.54,3.92v13.55l-9.62,2.37Z" transform="translate(-426.82 -325.83)"/><path class="cls-1" d="M607.51,483.47l.83-.24,59.4-14.85v73.19l-.83.12-59.4,14.85ZM654.43,480a40.36,40.36,0,0,0-14.25,1.78c-8.56,2.73-14.62,7.6-17.82,14.37a22,22,0,0,0-2,8.91c0,4.88,1.78,8.68,5.58,10.94,1,.47,2.49,1.3,4.75,2.25a16.39,16.39,0,0,1,4.87,2.5,3.79,3.79,0,0,1,2.14,3.56,4.53,4.53,0,0,1-1.78,3.57c-1.9,1.78-5.7,2.73-9.74,2.13a11.7,11.7,0,0,1-5.23-1.78l-1.07-.71v17.11H620a46.85,46.85,0,0,0,13.78-1.19A28.7,28.7,0,0,0,650,533c3.44-4.63,5.34-9.38,5.34-14.25a11.52,11.52,0,0,0-2.49-7.61,20.73,20.73,0,0,0-5.58-4.27l-6.54-3.21a3.49,3.49,0,0,1-2.26-3.21,3.77,3.77,0,0,1,1.55-3.09c3-2.49,7.13-2.85,13.42-1.3l1.07.23V480Z" transform="translate(-426.82 -325.83)"/><path class="cls-1" d="M667.73,483.47l.83-.24L728,468.38v73.19l-.83.12-59.41,14.85ZM714.66,480a40.45,40.45,0,0,0-14.26,1.78c-8.55,2.73-14.61,7.6-17.82,14.37a22.21,22.21,0,0,0-2,8.91c0,4.88,1.79,8.68,5.59,10.94,1,.47,2.49,1.3,4.75,2.25a16.39,16.39,0,0,1,4.87,2.5,3.79,3.79,0,0,1,2.14,3.56,4.56,4.56,0,0,1-1.78,3.57c-1.9,1.78-5.7,2.73-9.74,2.13a11.7,11.7,0,0,1-5.23-1.78l-1.07-.71v17.11h.12A46.85,46.85,0,0,0,694,543.47,28.7,28.7,0,0,0,710.27,533c3.44-4.63,5.34-9.38,5.34-14.25a11.52,11.52,0,0,0-2.49-7.61,20.64,20.64,0,0,0-5.59-4.27L701,503.67a3.47,3.47,0,0,1-2.26-3.21,3.77,3.77,0,0,1,1.55-3.09c3-2.49,7.12-2.85,13.42-1.3l1.07.23V480Z" transform="translate(-426.82 -325.83)"/><path class="cls-1" d="M728,483.47l.83-.24,59.41-14.85v73.19l-.84.12L728,556.54Zm46.57,10.46V479.31l-33.26,8.32v58.1l33.62-8.32V522.8l-17.82,4.39v-7.36l16.75-4.16V501.41l-16.75,4.28V498.2Z" transform="translate(-426.82 -325.83)"/><path class="cls-1" d="M788.19,483.47l.83-.24,59.4-14.85v73.19l-.83.12-59.4,14.85ZM835.12,480a40.42,40.42,0,0,0-14.26,1.78c-8.55,2.73-14.61,7.6-17.82,14.37a22,22,0,0,0-2,8.91c0,4.88,1.78,8.68,5.58,10.94.95.47,2.5,1.3,4.75,2.25a16.47,16.47,0,0,1,4.88,2.5,3.8,3.8,0,0,1,2.13,3.56,4.53,4.53,0,0,1-1.78,3.57c-1.9,1.78-5.7,2.73-9.74,2.13a11.7,11.7,0,0,1-5.23-1.78l-1.07-.71v17.11h.12a46.82,46.82,0,0,0,13.78-1.19A28.67,28.67,0,0,0,830.72,533c3.45-4.63,5.35-9.38,5.35-14.25a11.47,11.47,0,0,0-2.5-7.61,20.73,20.73,0,0,0-5.58-4.27l-6.54-3.21a3.48,3.48,0,0,1-2.25-3.21,3.76,3.76,0,0,1,1.54-3.09c3-2.49,7.13-2.85,13.43-1.3l1.07.23V480Z" transform="translate(-426.82 -325.83)"/><path class="cls-1" d="M968.88,541.57l-.83.12-59.41,14.85V483.47l.83-.24,59.41-14.85Zm-51.21,5.34,15.8-4V531l5.47-1.43c5.94-1.43,10.93-5,15-10.46a30.24,30.24,0,0,0,5.82-17.94c.12-6.53-1.66-11.52-5.47-15.08s-8.67-4.4-15-3l-21.63,5.46Zm18.65-48.47c2.62-.59,4.52-.24,5.83,1.43,1.3,1.3,1.78,3.44,1.78,6.06-.12,5.94-2.38,9.5-7.13,10.57l-3.33,1v-18.3Z" transform="translate(-426.82 -325.83)"/><path class="cls-1" d="M1029.11,541.57l-.84.12-59.4,14.85V483.47l.83-.24,59.41-14.85Zm-13.43-19L998.1,527V483.59l-15.92,4v58.1l33.5-8.32Z" transform="translate(-426.82 -325.83)"/><path class="cls-1" d="M1029.1,483.47l.83-.24,59.4-14.85v73.19l-.83.12-59.4,14.85Zm25,49.54,9.62-2.37v10.22l16.63-4.16V498.2c0-5.58-2-10.09-5.94-12.95a15.69,15.69,0,0,0-9.62-3,35,35,0,0,0-5.82.72,27.41,27.41,0,0,0-15,9.62,24.33,24.33,0,0,0-5.94,15.56v39.21l16-4.16Zm0-27.8a8.92,8.92,0,0,1,1.3-4.39c1.55-2.5,5-3.09,6.78-1.43a5.1,5.1,0,0,1,1.54,3.92v13.55l-9.62,2.37Z" transform="translate(-426.82 -325.83)"/><path class="cls-1" d="M1089.33,483.47l.83-.24,59.28-14.85v73.19l-.71.12-59.4,14.85ZM1100.26,503l10.93-2.85v43.6l15.68-4V496.18l11.76-3V478.6l-38.37,9.51Z" transform="translate(-426.82 -325.83)"/><path class="cls-1" d="M1149.44,483.47l60.11-15.09v73.19l-60.11,15ZM1193.75,507l-15,3.8V498.32l17.35-4.39V479.2L1163,487.51v58.22l15.8-3.92V525.29l15-3.8Z" transform="translate(-426.82 -325.83)"/><path class="cls-1" d="M1269.66,541.57l-.71.12-59.4,14.85V483.47l.83-.24,59.28-14.85ZM1257,485.49a14,14,0,0,0-10.57-4.39,26.1,26.1,0,0,0-6.54.95,28.09,28.09,0,0,0-17.46,12.35c-3.92,6.3-5.94,14.26-5.82,23.76.23,19.73,8,27.8,22.81,24.12A27.75,27.75,0,0,0,1257,529.81c3.68-5.94,5.7-14,5.7-23.76C1262.65,496.66,1260.75,489.77,1257,485.49Zm-17.35,41.7a10.21,10.21,0,0,1-1.78.24c-4.27,0-6.53-4.51-6.65-13.42,0-4.76.59-8.68,2.14-11.65a8.8,8.8,0,0,1,6.06-5.22c2.25-.6,4-.24,5.34.95,2.38,1.78,3.45,5.7,3.45,12.23-.12,14.73-6.18,16.4-8.32,16.75Z" transform="translate(-426.82 -325.83)"/><path class="cls-1" d="M1269.66,483.47l.83-.24,59.4-14.85v73.19l-.83.12-59.4,14.85Zm51.8,52.75-10-18.89.47-.47a34.25,34.25,0,0,0,5.7-8.32,24.86,24.86,0,0,0,2.5-10.34c0-6.17-2-10.57-5.7-13.18s-8.91-3.09-15.21-1.55l-21.74,5.47v58.33l15.8-4V526.6l2.73-.71,7.37,14.73Zm-25.31-37.78c2.49-.47,4.28-.24,5.7.71a6.42,6.42,0,0,1,1.67,4.52c-.12,4.51-2.26,7.13-6.9,8.2l-3.32.83V499.27Z" transform="translate(-426.82 -325.83)"/><path class="cls-1" d="M1390,541.57l-.71.12-59.41,14.85V483.47l.84-.24L1390,468.38Zm-20.44-27.09,1.91.12v24.12l11.52-2.85V477.53l-17.7,4.52-5.35,33.62-4.51-31.13-18.54,4.64v58.21l11.53-2.85V520l1.9-.24,4,23.28,11.05-2.73Z" transform="translate(-426.82 -325.83)"/></svg>